<svg width="24" height="24" viewBox="0 0 24 24" fill="none" xmlns="http://www.w3.org/2000/svg">
<path d="M9.75 16.1895V7.81049C9.75003 7.66218 9.79404 7.5172 9.87645 7.3939C9.95886 7.27059 10.076 7.17449 10.213 7.11773C10.35 7.06098 10.5008 7.04613 10.6463 7.07505C10.7917 7.10398 10.9254 7.17538 11.0302 7.28024L15.2197 11.4697C15.3603 11.6104 15.4393 11.8011 15.4393 12C15.4393 12.1989 15.3603 12.3896 15.2197 12.5302L11.0302 16.7197C10.9254 16.8246 10.7917 16.896 10.6463 16.9249C10.5008 16.9539 10.35 16.939 10.213 16.8822C10.076 16.8255 9.95886 16.7294 9.87645 16.6061C9.79404 16.4828 9.75003 16.3378 9.75 16.1895Z" fill="white"/>
</svg>
