<svg width="18" height="18" viewBox="0 0 18 18" fill="none" xmlns="http://www.w3.org/2000/svg">
<path d="M8.03024 4.06064L12.2197 8.25014C12.3603 8.39078 12.4393 8.58151 12.4393 8.78039C12.4393 8.97926 12.3603 9.16999 12.2197 9.31064L8.03024 13.5001C7.92535 13.605 7.79173 13.6764 7.64626 13.7053C7.5008 13.7342 7.35002 13.7194 7.213 13.6626C7.07597 13.6059 6.95885 13.5098 6.87644 13.3865C6.79403 13.2632 6.75002 13.1182 6.74999 12.9699L6.74999 4.59089C6.75002 4.44257 6.79403 4.2976 6.87644 4.17429C6.95885 4.05099 7.07597 3.95488 7.213 3.89813C7.35002 3.84138 7.5008 3.82652 7.64626 3.85545C7.79173 3.88438 7.92535 3.95578 8.03024 4.06064Z" fill="#434343"/>
</svg>
