<svg width="18" height="18" viewBox="0 0 18 18" fill="none" xmlns="http://www.w3.org/2000/svg">
<g clip-path="url(#clip0_1_1857)">
<path d="M9 1.5C4.85625 1.5 1.5 4.85625 1.5 9C1.5 13.1438 4.85625 16.5 9 16.5C13.1438 16.5 16.5 13.1438 16.5 9C16.5 4.85625 13.1438 1.5 9 1.5ZM3 9C3 5.685 5.685 3 9 3C10.3875 3 11.6587 3.47625 12.675 4.26375L4.26375 12.675C3.47625 11.6587 3 10.3875 3 9ZM9 15C7.6125 15 6.34125 14.5238 5.325 13.7362L13.7362 5.325C14.5238 6.34125 15 7.6125 15 9C15 12.315 12.315 15 9 15Z" fill="#F8FAFF"/>
</g>
<defs>
<clipPath id="clip0_1_1857">
<rect width="18" height="18" fill="white"/>
</clipPath>
</defs>
</svg>
