<svg width="18" height="18" viewBox="0 0 18 18" fill="none" xmlns="http://www.w3.org/2000/svg">
<g clip-path="url(#clip0_7_7792)">
<path d="M0.879 14.3393C0.316352 14.9017 0.000169912 15.6647 0 16.4603L0 18H1.53975C2.33533 17.9998 3.09827 17.6837 3.66075 17.121L13.668 7.11378L10.8863 4.33203L0.879 14.3393Z" fill="white"/>
<path d="M17.3585 0.641153C17.1759 0.458329 16.959 0.313294 16.7203 0.21434C16.4816 0.115386 16.2257 0.0644531 15.9673 0.0644531C15.7089 0.0644531 15.453 0.115386 15.2143 0.21434C14.9755 0.313294 14.7587 0.458329 14.576 0.641153L11.9465 3.2714L14.7283 6.05315L17.3585 3.42365C17.5414 3.24102 17.6864 3.02414 17.7853 2.78542C17.8843 2.5467 17.9352 2.29082 17.9352 2.0324C17.9352 1.77399 17.8843 1.5181 17.7853 1.27938C17.6864 1.04066 17.5414 0.823786 17.3585 0.641153Z" fill="white"/>
</g>
<defs>
<clipPath id="clip0_7_7792">
<rect width="18" height="18" fill="white"/>
</clipPath>
</defs>
</svg>
