<svg width="34" height="32" viewBox="0 0 34 32" fill="none" xmlns="http://www.w3.org/2000/svg">
<line opacity="0.5" x1="0.500137" y1="1.93613" x2="32.5001" y2="1.93613" stroke="#7F7F7F" stroke-width="0.2"/>
<path opacity="0.2" d="M0.500137 31.5057V8.17277L1.8601 6.99676C2.00846 6.97489 2.12939 7.06471 2.23396 7.21373C2.4676 7.44898 2.75874 7.90706 3.02971 8.73485C3.5575 8.90152 4.58794 8.16815 4.76387 8.73485C4.81387 8.88527 4.89742 9.15079 5.0072 9.45587C5.33841 10.3546 5.91822 11.6071 6.49803 11.235C7.27715 10.735 8.53379 8.16815 9.6899 10.3016C10.9001 12.5346 11.3105 14.1787 12.6053 12.6017C13.6709 11.2683 15.528 9.0935 16.3234 8.17277C16.7038 8.20673 17.3916 8.48959 18.0248 9.26663C18.4226 9.73351 18.7887 10.374 19.0226 11.235C19.6183 13.4271 20.7601 11.5261 21.2565 10.3016L23.6765 12.6017C24.1317 13.7836 25.239 15.3989 26.2808 13.2746C26.3749 13.0812 26.4688 12.8579 26.562 12.6017C27.9581 8.73485 28.2374 6.2301 29.0751 7.20144C29.6788 7.90149 30.9826 10.5249 31.7342 12.1175C31.8397 12.3295 31.9182 12.4962 31.9605 12.6017V31.5057H0.500137Z" fill="url(#paint0_linear_1_7907)"/>
<path d="M0.500137 8.19126C0.955183 8.01619 1.76355 6.61129 2.80014 8.19114C3.40014 9.10559 3.10349 8.64818 4.60014 8.64829C5.10014 8.64832 5.30572 11.1627 6.20014 11.1627C7.10014 11.1627 8.01757 8.80899 8.70014 9.3342C9.38271 9.8594 10.9013 13.6177 11.6001 13.2199C15.2144 11.1627 15.49 7.92865 16.4001 8.19126C17.1282 8.40134 17.9001 8.87705 19.6001 12.3056C19.9001 12.5342 21.3001 10.2485 21.3001 10.2485C21.3001 10.2485 23.1668 11.0104 23.7001 12.7628C26.4001 17.3343 27.1521 8.3799 28.6001 7.27709C29.2001 6.82014 32.0001 11.1628 32.0001 13.2199" stroke="#00BF1A" stroke-linecap="round"/>
<line x1="32.2499" y1="31.9878" x2="32.2499" y2="0.000101089" stroke="white" stroke-width="0.5"/>
<circle cx="31.9999" cy="12.9995" r="1.5" fill="black" stroke="white"/>
<defs>
<linearGradient id="paint0_linear_1_7907" x1="16.2303" y1="6.9917" x2="16.2303" y2="31.5057" gradientUnits="userSpaceOnUse">
<stop stop-color="#00BF1A"/>
<stop offset="1" stop-color="#F1FFEB"/>
</linearGradient>
</defs>
</svg>
