<svg width="14" height="14" viewBox="0 0 14 14" fill="none" xmlns="http://www.w3.org/2000/svg">
<path fill-rule="evenodd" clip-rule="evenodd" d="M11.7834 2.7579C11.7834 2.46502 11.5483 2.2276 11.2584 2.2276L9.15837 2.2276C8.86842 2.2276 8.63337 2.46502 8.63337 2.7579L8.63337 11.2428C8.63337 11.5356 8.86842 11.7731 9.15837 11.7731L11.2584 11.7731C11.5483 11.7731 11.7834 11.5356 11.7834 11.2428L11.7834 2.7579ZM11.2584 1.16699C12.1282 1.16699 12.8334 1.87927 12.8334 2.7579L12.8334 11.2428C12.8334 12.1214 12.1282 12.8337 11.2584 12.8337L9.15837 12.8337C8.28853 12.8337 7.58337 12.1214 7.58337 11.2428L7.58337 2.7579C7.58337 1.87927 8.28853 1.16699 9.15837 1.16699L11.2584 1.16699Z" fill="black"/>
<path fill-rule="evenodd" clip-rule="evenodd" d="M5.36663 2.7579C5.36663 2.46502 5.13158 2.2276 4.84163 2.2276L2.74163 2.2276C2.45168 2.2276 2.21663 2.46502 2.21663 2.7579L2.21663 11.2428C2.21663 11.5356 2.45168 11.7731 2.74163 11.7731L4.84163 11.7731C5.13158 11.7731 5.36663 11.5356 5.36663 11.2428L5.36663 2.7579ZM4.84163 1.16699C5.71147 1.16699 6.41663 1.87927 6.41663 2.7579L6.41663 11.2428C6.41663 12.1214 5.71147 12.8337 4.84163 12.8337L2.74163 12.8337C1.87178 12.8337 1.16663 12.1214 1.16663 11.2428L1.16663 2.7579C1.16663 1.87927 1.87178 1.16699 2.74163 1.16699L4.84163 1.16699Z" fill="black"/>
<path fill-rule="evenodd" clip-rule="evenodd" d="M10.2083 3.5C10.3694 3.5 10.5 3.62993 10.5 3.79022L10.5 3.79312C10.5 3.9534 10.3694 4.08333 10.2083 4.08333C10.0473 4.08333 9.91667 3.9534 9.91667 3.79312L9.91667 3.79022C9.91667 3.62993 10.0473 3.5 10.2083 3.5Z" fill="black"/>
<path fill-rule="evenodd" clip-rule="evenodd" d="M3.79171 3.5C3.95279 3.5 4.08337 3.62993 4.08337 3.79022L4.08337 3.79312C4.08337 3.9534 3.95279 4.08333 3.79171 4.08333C3.63062 4.08333 3.50004 3.9534 3.50004 3.79312L3.50004 3.79022C3.50004 3.62993 3.63062 3.5 3.79171 3.5Z" fill="black"/>
</svg>
