<svg width="14" height="14" viewBox="0 0 14 14" fill="none" xmlns="http://www.w3.org/2000/svg">
<path fill-rule="evenodd" clip-rule="evenodd" d="M1.16663 8.16634C1.16663 7.84417 1.42779 7.58301 1.74996 7.58301H5.83329C6.15546 7.58301 6.41663 7.84417 6.41663 8.16634V12.2497C6.41663 12.5718 6.15546 12.833 5.83329 12.833H1.74996C1.42779 12.833 1.16663 12.5718 1.16663 12.2497V8.16634ZM2.33329 8.74967V11.6663H5.24996V8.74967H2.33329Z" fill="white"/>
<path fill-rule="evenodd" clip-rule="evenodd" d="M1.16663 1.75033C1.16663 1.42816 1.42779 1.16699 1.74996 1.16699H5.83329C6.15546 1.16699 6.41663 1.42816 6.41663 1.75033V5.83366C6.41663 6.15582 6.15546 6.41699 5.83329 6.41699H1.74996C1.42779 6.41699 1.16663 6.15582 1.16663 5.83366V1.75033ZM2.33329 2.33366V5.25033H5.24996V2.33366H2.33329Z" fill="white"/>
<path fill-rule="evenodd" clip-rule="evenodd" d="M7.58337 2.33333C7.58337 2.01117 7.84454 1.75 8.16671 1.75H12.25C12.5722 1.75 12.8334 2.01117 12.8334 2.33333C12.8334 2.6555 12.5722 2.91667 12.25 2.91667H8.16671C7.84454 2.91667 7.58337 2.6555 7.58337 2.33333Z" fill="white"/>
<path fill-rule="evenodd" clip-rule="evenodd" d="M7.58337 5.25033C7.58337 4.92816 7.84454 4.66699 8.16671 4.66699H12.25C12.5722 4.66699 12.8334 4.92816 12.8334 5.25033C12.8334 5.57249 12.5722 5.83366 12.25 5.83366H8.16671C7.84454 5.83366 7.58337 5.57249 7.58337 5.25033Z" fill="white"/>
<path fill-rule="evenodd" clip-rule="evenodd" d="M7.58337 8.75033C7.58337 8.42816 7.84454 8.16699 8.16671 8.16699H12.25C12.5722 8.16699 12.8334 8.42816 12.8334 8.75033C12.8334 9.07249 12.5722 9.33366 12.25 9.33366H8.16671C7.84454 9.33366 7.58337 9.07249 7.58337 8.75033Z" fill="white"/>
<path fill-rule="evenodd" clip-rule="evenodd" d="M7.58337 11.6663C7.58337 11.3442 7.84454 11.083 8.16671 11.083H12.25C12.5722 11.083 12.8334 11.3442 12.8334 11.6663C12.8334 11.9885 12.5722 12.2497 12.25 12.2497H8.16671C7.84454 12.2497 7.58337 11.9885 7.58337 11.6663Z" fill="white"/>
</svg>
