<svg width="32" height="32" viewBox="0 0 32 32" fill="none" xmlns="http://www.w3.org/2000/svg">
<g clip-path="url(#clip0_7_7895)">
<path opacity="0.0833333" d="M22.2085 3.32604L19.1685 8.59147C18.9034 9.05063 19.0607 9.63775 19.5199 9.90285C19.979 10.1679 20.5661 10.0106 20.8312 9.55147L23.8712 4.28604C24.1363 3.82688 23.979 3.23975 23.5199 2.97465C23.0607 2.70956 22.4736 2.86688 22.2085 3.32604Z" fill="#FFF4F4"/>
<path opacity="0.166667" d="M27.7135 8.12844L22.4481 11.1684C21.9889 11.4335 21.8316 12.0207 22.0967 12.4798C22.3618 12.939 22.9489 13.0963 23.4081 12.8312L28.6735 9.79121C29.1327 9.52611 29.29 8.93898 29.0249 8.47982C28.7598 8.02066 28.1727 7.86334 27.7135 8.12844Z" fill="#FFF4F4"/>
<path opacity="0.25" d="M30.08 15.04H24C23.4698 15.04 23.04 15.4698 23.04 16C23.04 16.5302 23.4698 16.96 24 16.96H30.08C30.6102 16.96 31.04 16.5302 31.04 16C31.04 15.4698 30.6102 15.04 30.08 15.04Z" fill="#FFF4F4"/>
<path opacity="0.333333" d="M28.6735 22.2085L23.408 19.1685C22.9489 18.9034 22.3618 19.0607 22.0967 19.5199C21.8316 19.979 21.9889 20.5661 22.448 20.8312L27.7135 23.8712C28.1726 24.1363 28.7598 23.979 29.0249 23.5199C29.29 23.0607 29.1326 22.4736 28.6735 22.2085Z" fill="#FFF4F4"/>
<path opacity="0.416667" d="M23.8716 27.714L20.8316 22.4486C20.5665 21.9894 19.9793 21.8321 19.5202 22.0972C19.061 22.3623 18.9037 22.9494 19.1688 23.4086L22.2088 28.674C22.4739 29.1332 23.061 29.2905 23.5202 29.0254C23.9793 28.7603 24.1367 28.1732 23.8716 27.714Z" fill="#FFF4F4"/>
<path opacity="0.5" d="M16.96 30.08V24C16.96 23.4698 16.5302 23.04 16 23.04C15.4698 23.04 15.04 23.4698 15.04 24V30.08C15.04 30.6102 15.4698 31.04 16 31.04C16.5302 31.04 16.96 30.6102 16.96 30.08Z" fill="#FFF4F4"/>
<path opacity="0.583333" d="M9.79152 28.674L12.8315 23.4085C13.0966 22.9494 12.9393 22.3622 12.4801 22.0971C12.021 21.8321 11.4339 21.9894 11.1688 22.4485L8.12876 27.714C7.86366 28.1731 8.02098 28.7603 8.48014 29.0253C8.9393 29.2904 9.52643 29.1331 9.79152 28.674Z" fill="#FFF4F4"/>
<path opacity="0.666667" d="M4.28649 23.8716L9.55192 20.8316C10.0111 20.5665 10.1684 19.9793 9.9033 19.5202C9.6382 19.061 9.05108 18.9037 8.59192 19.1688L3.32649 22.2088C2.86732 22.4739 2.71 23.061 2.9751 23.5202C3.2402 23.9793 3.82732 24.1367 4.28649 23.8716Z" fill="#FFF4F4"/>
<path opacity="0.75" d="M1.91996 16.96H7.99996C8.53015 16.96 8.95996 16.5302 8.95996 16C8.95996 15.4698 8.53015 15.04 7.99996 15.04H1.91996C1.38977 15.04 0.959961 15.4698 0.959961 16C0.959961 16.5302 1.38977 16.96 1.91996 16.96Z" fill="#FFF4F4"/>
<path opacity="0.833333" d="M3.32652 9.79152L8.59196 12.8315C9.05112 13.0966 9.63824 12.9393 9.90334 12.4801C10.1684 12.021 10.0111 11.4339 9.55196 11.1688L4.28652 8.12876C3.82736 7.86366 3.24024 8.02098 2.97514 8.48014C2.71004 8.9393 2.86736 9.52643 3.32652 9.79152Z" fill="#FFF4F4"/>
<path opacity="0.916667" d="M8.12844 4.286L11.1684 9.55143C11.4335 10.0106 12.0207 10.1679 12.4798 9.90281C12.939 9.63772 13.0963 9.05059 12.8312 8.59143L9.79121 3.326C9.52611 2.86684 8.93898 2.70952 8.47982 2.97461C8.02066 3.23971 7.86334 3.82684 8.12844 4.286Z" fill="#FFF4F4"/>
</g>
<defs>
<clipPath id="clip0_7_7895">
<rect width="32" height="32" fill="white"/>
</clipPath>
</defs>
</svg>
