<svg width="310" height="124" viewBox="0 0 310 124" fill="none" xmlns="http://www.w3.org/2000/svg">
<g filter="url(#filter0_d_1_9207)">
<g clip-path="url(#clip0_1_9207)">
<rect x="12" y="9" width="286" height="100" rx="8" fill="black"/>
<g opacity="0.6">
<mask id="mask0_1_9207" style="mask-type:alpha" maskUnits="userSpaceOnUse" x="72" y="-70" width="352" height="233">
<path d="M274.358 64.1354C212.738 39.8577 190.393 130.539 72.0269 131.654L150.072 -69.6081L423.256 -13.071C412.734 69.8279 369.324 169.203 367.374 162.193C364.935 153.431 335.978 88.4132 274.358 64.1354Z" fill="#F6F8FC"/>
</mask>
<g mask="url(#mask0_1_9207)">
<mask id="mask1_1_9207" style="mask-type:alpha" maskUnits="userSpaceOnUse" x="52" y="-114" width="414" height="411">
<path d="M117.25 -113.337L52.3403 235.339L394.18 296.544C418.655 225.716 467.197 83.6233 465.57 81.8753C463.943 80.1272 232.679 -48.9944 117.25 -113.337Z" fill="url(#paint0_linear_1_9207)"/>
</mask>
<g mask="url(#mask1_1_9207)">
<mask id="mask2_1_9207" style="mask-type:alpha" maskUnits="userSpaceOnUse" x="71" y="-59" width="398" height="325">
<path d="M71.9802 168.608C96.1058 70.9463 126.901 -53.6326 127.736 -58.6005L468.497 38.4004L412.741 265.609L71.9802 168.608Z" fill="url(#paint1_linear_1_9207)"/>
</mask>
<g mask="url(#mask2_1_9207)">
<path d="M274.064 26.8537C302.519 35.3173 317.604 77.3696 309.68 108.691C301.756 140.012 279.838 177.689 249.308 168.609C234.179 164.109 210.512 179.583 196.484 158.639C182.204 137.319 197.172 95.8385 201.169 80.0385C209.093 48.7173 245.609 18.3902 274.064 26.8537Z" fill="#97C7FF"/>
<g filter="url(#filter1_f_1_9207)">
<path d="M273.848 27.3573C306.544 37.0824 320.133 82.8224 311.337 117.589C302.541 152.356 278.662 194.313 245.965 184.588C229.763 179.768 203.981 198.062 189.111 175.023C173.974 151.57 190.426 105.477 194.863 87.9392C203.659 53.1721 241.151 17.6321 273.848 27.3573Z" fill="#97C7FF"/>
</g>
<g filter="url(#filter2_f_1_9207)">
<path d="M273.567 32.9321C291.556 23.5126 330.7 89.5015 322.351 122.499C314.003 155.497 288.435 194.454 249.707 182.935C230.516 177.227 200.638 196.286 181.994 173.072C163.015 149.441 180.385 103.215 184.597 86.5694C192.945 53.5717 256.008 9.85564 273.567 32.9321Z" fill="#97C7FF"/>
</g>
<g filter="url(#filter3_f_1_9207)">
<path d="M273.961 47.1146C314.235 67.4037 338.876 118.673 329.547 155.547C320.218 192.422 288.698 225.911 247.677 213.71C227.35 207.664 191.05 240.081 171.545 214.534C151.689 188.529 170.003 139.899 174.709 121.298C184.039 84.4226 227.305 23.611 273.961 47.1146Z" fill="#97C7FF"/>
</g>
<g filter="url(#filter4_f_1_9207)">
<path d="M296.343 54.6201C320.959 78.9944 373.116 145.264 363.507 183.245C353.898 221.227 236.977 212.852 192.809 199.714C170.921 193.204 140.678 199.795 119.459 173.146C97.858 146.019 139.583 107.429 173.161 73.026C217.75 27.3414 274.976 16.1769 296.343 54.6201Z" fill="#97C7FF"/>
</g>
<g filter="url(#filter5_f_1_9207)">
<path d="M265.185 56.249C310.829 69.8252 378.412 175.705 368.583 214.552C358.755 253.4 268.504 244.397 222.86 230.821C200.241 224.093 131.779 237.116 109.8 209.777C87.4259 181.948 110.175 156.777 115.133 137.18C124.962 98.3328 219.54 42.6727 265.185 56.249Z" fill="#97C7FF"/>
</g>
<g filter="url(#filter6_f_1_9207)">
<path d="M265.185 56.249C310.829 69.8252 378.412 175.705 368.583 214.552C358.755 253.4 268.504 244.397 222.86 230.821C200.241 224.093 131.779 237.116 109.8 209.777C87.4259 181.948 110.175 156.777 115.133 137.18C124.962 98.3328 219.54 42.6727 265.185 56.249Z" fill="#97C7FF"/>
</g>
<g filter="url(#filter7_f_1_9207)">
<path d="M265.185 56.249C310.829 69.8252 378.412 175.705 368.583 214.552C358.755 253.4 268.504 244.397 222.86 230.821C200.241 224.093 131.779 237.116 109.8 209.777C87.4259 181.948 110.175 156.777 115.133 137.18C124.962 98.3328 219.54 42.6727 265.185 56.249Z" fill="#97C7FF"/>
</g>
<g filter="url(#filter8_f_1_9207)">
<path d="M265.185 56.249C310.829 69.8252 378.412 175.705 368.583 214.552C358.755 253.4 268.504 244.397 222.86 230.821C200.241 224.093 131.779 237.116 109.8 209.777C87.4259 181.948 110.175 156.777 115.133 137.18C124.962 98.3328 219.54 42.6727 265.185 56.249Z" fill="#97C7FF"/>
</g>
<g filter="url(#filter9_f_1_9207)">
<path d="M274.656 27.5997C314.595 39.4789 336.026 100.898 326.198 139.745C316.37 178.593 284.876 214.382 244.937 202.503C225.146 196.616 191.673 197.021 173.054 170.682C154.099 143.87 173.903 103.973 178.861 84.3765C188.689 45.5292 234.717 15.7205 274.656 27.5997Z" fill="#97C7FF"/>
</g>
<path d="M282.055 32.146C308.812 39.7626 322.721 81.1583 315.023 112.529C307.325 143.9 286.391 181.986 257.683 173.814C243.457 169.764 221.038 185.818 207.97 165.385C194.667 144.584 209.079 102.912 212.962 87.0868C220.661 55.7159 255.299 24.5295 282.055 32.146Z" fill="#AFC6FF"/>
<g filter="url(#filter10_f_1_9207)">
<path d="M281.842 32.6601C312.587 41.4119 325.059 86.517 316.514 121.339C307.968 156.161 285.155 198.557 254.409 189.806C239.174 185.469 214.74 204.386 200.894 181.893C186.8 158.995 202.644 112.695 206.955 95.1284C215.5 60.3062 251.097 23.9082 281.842 32.6601Z" fill="#AFC6FF"/>
</g>
<g filter="url(#filter11_f_1_9207)">
<path d="M281.543 38.194C298.567 28.3206 334.975 92.8439 326.865 125.894C318.755 158.944 294.371 198.405 257.955 188.039C239.909 182.902 211.61 202.696 194.208 180.135C176.494 157.168 193.204 110.709 197.295 94.0368C205.406 60.9868 265.163 15.7389 281.543 38.194Z" fill="#AFC6FF"/>
</g>
<g filter="url(#filter12_f_1_9207)">
<path d="M281.809 52.2846C319.618 71.3288 342.466 121.621 333.403 158.555C324.339 195.488 294.387 229.678 255.815 218.698C236.7 213.257 202.25 246.516 184.054 221.659C165.531 196.356 183.148 147.48 187.72 128.849C196.784 91.9152 238.008 30.2229 281.809 52.2846Z" fill="#AFC6FF"/>
</g>
<g filter="url(#filter13_f_1_9207)">
<path d="M302.85 59.125C325.871 82.6723 374.543 147.109 365.208 185.15C355.872 223.192 245.737 218.152 204.204 206.329C183.623 200.47 155.071 207.875 135.267 181.97C115.108 155.6 154.717 116.05 186.616 80.8934C228.976 34.2074 282.993 21.4951 302.85 59.125Z" fill="#AFC6FF"/>
</g>
<g filter="url(#filter14_f_1_9207)">
<path d="M273.471 61.6286C316.391 73.8462 379.31 177.24 369.762 216.149C360.214 255.058 275.219 248.643 232.299 236.426C211.031 230.372 146.409 245.247 125.895 218.678C105.012 191.632 126.638 165.96 131.454 146.332C141.002 107.423 230.551 49.4111 273.471 61.6286Z" fill="#AFC6FF"/>
</g>
<g filter="url(#filter15_f_1_9207)">
<path d="M273.471 61.6286C316.391 73.8462 379.31 177.24 369.762 216.149C360.214 255.058 275.219 248.643 232.299 236.426C211.031 230.372 146.409 245.247 125.895 218.678C105.012 191.632 126.638 165.96 131.454 146.332C141.002 107.423 230.551 49.4111 273.471 61.6286Z" fill="#AFC6FF"/>
</g>
<g filter="url(#filter16_f_1_9207)">
<path d="M273.471 61.6286C316.391 73.8462 379.31 177.24 369.762 216.149C360.214 255.058 275.219 248.643 232.299 236.426C211.031 230.372 146.409 245.247 125.895 218.678C105.012 191.632 126.638 165.96 131.454 146.332C141.002 107.423 230.551 49.4111 273.471 61.6286Z" fill="#AFC6FF"/>
</g>
<g filter="url(#filter17_f_1_9207)">
<path d="M273.471 61.6286C316.391 73.8462 379.31 177.24 369.762 216.149C360.214 255.058 275.219 248.643 232.299 236.426C211.031 230.372 146.409 245.247 125.895 218.678C105.012 191.632 126.638 165.96 131.454 146.332C141.002 107.423 230.551 49.4111 273.471 61.6286Z" fill="#AFC6FF"/>
</g>
<g filter="url(#filter18_f_1_9207)">
<path d="M282.608 32.8709C320.163 43.5613 339.912 104.038 330.364 142.947C320.815 181.856 290.871 218.333 253.316 207.643C234.705 202.345 203.155 203.689 185.799 178.019C168.131 151.888 187.089 111.656 191.905 92.0279C201.453 53.1189 245.053 22.1806 282.608 32.8709Z" fill="#AFC6FF"/>
</g>
</g>
</g>
</g>
<mask id="mask3_1_9207" style="mask-type:alpha" maskUnits="userSpaceOnUse" x="-87" y="-45" width="381" height="299">
<path d="M80.5974 82.166C128.123 128.294 183.654 53.2018 293.328 97.7375L143.821 253.447L-86.5463 96.105C-44.9241 23.6445 33.3948 -51.3617 32.4969 -44.1415C31.3746 -35.1162 33.0715 36.0385 80.5974 82.166Z" fill="#F6F8FC"/>
</mask>
<g mask="url(#mask3_1_9207)">
<mask id="mask4_1_9207" style="mask-type:alpha" maskUnits="userSpaceOnUse" x="-106" y="-153" width="427" height="435">
<path d="M223.557 281.646L320.586 -59.4895L-14.0876 -152.195C-45.0376 -83.9475 -106.573 53.0199 -105.116 54.9116C-103.659 56.8032 114.606 206.856 223.557 281.646Z" fill="url(#paint2_linear_1_9207)"/>
</mask>
<g mask="url(#mask4_1_9207)">
<mask id="mask5_1_9207" style="mask-type:alpha" maskUnits="userSpaceOnUse" x="-113" y="-124" width="408" height="351">
<path d="M294.827 5.13037C261.73 100.128 219.493 221.306 218.199 226.175L-112.074 97.9291L-35.4461 -123.115L294.827 5.13037Z" fill="url(#paint3_linear_1_9207)"/>
</mask>
<g mask="url(#mask5_1_9207)">
<path d="M72.4138 126.384C48.8629 111.576 47.1089 67.9409 63.2884 39.9834C79.4679 12.0258 110.234 -18.6691 135.502 -2.78124C148.024 5.09197 174.043 -4.0374 180.862 19.2389C187.805 42.9334 162.294 78.8989 154.133 93.0021C137.953 120.96 95.9647 141.192 72.4138 126.384Z" fill="white"/>
<path d="M108.932 123.855C81.6903 118.215 64.7916 77.9469 70.1757 46.097C75.5598 14.2472 93.6529 -25.267 122.881 -19.2159C137.365 -16.2173 158.55 -33.8673 173.078 -14.4441C187.866 5.32792 176.539 47.9425 173.823 64.0093C168.439 95.8591 136.174 129.495 108.932 123.855Z" fill="#ABD5ED"/>
<g filter="url(#filter19_f_1_9207)">
<path d="M72.7544 125.955C45.6929 108.94 46.3581 62.1467 64.3175 31.1133C82.277 0.0800148 116.056 -34.2258 143.117 -17.2103C156.527 -8.7783 185.283 -20.0923 192.272 5.37956C199.386 31.309 171.204 71.3158 162.144 86.9706C144.185 118.004 99.8159 142.971 72.7544 125.955Z" fill="white"/>
</g>
<g filter="url(#filter20_f_1_9207)">
<path d="M109.105 123.329C77.8019 116.848 62.0656 72.7757 68.042 37.4219C74.0184 2.06811 93.6716 -41.8824 124.974 -35.4018C140.486 -32.1904 163.471 -52.8437 178.925 -31.4228C194.656 -9.61708 182.239 37.718 179.224 55.5523C173.247 90.9061 140.407 129.809 109.105 123.329Z" fill="#ABD5ED"/>
</g>
<g filter="url(#filter21_f_1_9207)">
<path d="M74.6 120.719C55.4915 125.427 38.6196 53.2869 55.6651 23.8329C72.7105 -5.62102 107.173 -36.67 139.227 -16.5157C155.111 -6.52825 187.822 -17.6007 198.206 8.93263C208.776 35.9426 179.718 75.8589 171.119 90.717C154.074 120.171 84.0324 146.864 74.6 120.719Z" fill="white"/>
</g>
<g filter="url(#filter22_f_1_9207)">
<path d="M109 117.782C92.7434 128.873 51.7149 67.1846 57.3872 33.63C63.0594 0.0754849 84.492 -41.0628 121.569 -33.3868C139.942 -29.5829 166.719 -51.3933 185.723 -30.1645C205.069 -8.55446 191.8 39.0019 188.939 55.9285C183.267 89.4831 126.978 138.979 109 117.782Z" fill="#ABD5ED"/>
</g>
<g filter="url(#filter23_f_1_9207)">
<path d="M78.2953 107.114C47.336 78.2392 39.494 23.5593 58.5424 -9.35552C77.5907 -42.2704 115.923 -66.6988 149.874 -45.3513C166.698 -34.7726 209.087 -57.047 219.59 -28.0877C230.282 1.39183 199.676 43.3744 190.067 59.9783C171.018 92.8931 114.16 140.564 78.2953 107.114Z" fill="white"/>
</g>
<g filter="url(#filter24_f_1_9207)">
<path d="M107.707 103.739C68.6062 87.5103 42.1422 39.0229 48.4809 1.52561C54.8196 -35.9717 82.1921 -72.26 121.464 -64.1296C140.925 -60.1005 172.851 -95.7891 192.816 -72.3294C213.14 -48.4483 199.143 1.58529 195.945 20.5008C189.607 57.9981 153.003 122.539 107.707 103.739Z" fill="#ABD5ED"/>
</g>
<g filter="url(#filter25_f_1_9207)">
<path d="M60.0032 94.6651C44.5012 65.6108 15.8327 -9.88168 35.4525 -43.7841C55.0724 -77.6866 159.385 -41.9902 195.941 -19.0045C214.057 -7.61399 243.54 -6.72221 255.292 23.6934C267.256 54.6554 218.152 81.5236 177.681 106.335C123.937 139.283 68.5214 136.351 60.0032 94.6651Z" fill="white"/>
</g>
<g filter="url(#filter26_f_1_9207)">
<path d="M86.222 98.4646C61.5404 76.6635 8.28771 15.9582 14.8166 -22.6642C21.3456 -61.2866 131.555 -64.3122 173.841 -55.5578C194.795 -51.2196 222.73 -60.692 244.374 -36.3047C266.408 -11.4793 229.796 30.8608 200.553 68.2561C161.72 117.914 108.777 134.542 86.222 98.4646Z" fill="#ABD5ED"/>
</g>
<g filter="url(#filter27_f_1_9207)">
<path d="M88.9159 100.49C51.1382 76.7363 19.7076 -40.1454 39.7748 -74.8208C59.842 -109.496 139.635 -79.5246 177.413 -55.771C196.133 -44 262.334 -40.1743 274.583 -8.92167C287.052 22.8924 259.099 41.4769 248.976 58.969C228.909 93.6445 126.694 124.243 88.9159 100.49Z" fill="white"/>
</g>
<g filter="url(#filter28_f_1_9207)">
<path d="M115.339 93.8137C71.6403 84.7669 1.32961 -13.75 8.0074 -53.2531C14.6852 -92.7561 99.9212 -92.5728 143.62 -83.526C165.274 -79.0428 228.635 -98.6035 251.037 -73.6055C273.841 -48.1584 254.151 -20.9741 250.782 -1.04678C244.104 38.4563 159.037 102.86 115.339 93.8137Z" fill="#ABD5ED"/>
</g>
<g filter="url(#filter29_f_1_9207)">
<path d="M88.9159 100.49C51.1382 76.7363 19.7076 -40.1454 39.7748 -74.8208C59.842 -109.496 139.635 -79.5246 177.413 -55.771C196.133 -44 262.334 -40.1743 274.583 -8.92167C287.052 22.8924 259.099 41.4769 248.976 58.969C228.909 93.6445 126.694 124.243 88.9159 100.49Z" fill="white"/>
</g>
<g filter="url(#filter30_f_1_9207)">
<path d="M115.339 93.8137C71.6403 84.7669 1.32961 -13.75 8.0074 -53.2531C14.6852 -92.7561 99.9212 -92.5728 143.62 -83.526C165.274 -79.0428 228.635 -98.6035 251.037 -73.6055C273.841 -48.1584 254.151 -20.9741 250.782 -1.04678C244.104 38.4563 159.037 102.86 115.339 93.8137Z" fill="#ABD5ED"/>
</g>
<g filter="url(#filter31_f_1_9207)">
<path d="M88.9159 100.49C51.1382 76.7363 19.7076 -40.1454 39.7748 -74.8208C59.842 -109.496 139.635 -79.5246 177.413 -55.771C196.133 -44 262.334 -40.1743 274.583 -8.92167C287.052 22.8924 259.099 41.4769 248.976 58.969C228.909 93.6445 126.694 124.243 88.9159 100.49Z" fill="white"/>
</g>
<g filter="url(#filter32_f_1_9207)">
<path d="M115.339 93.8137C71.6403 84.7669 1.32961 -13.75 8.0074 -53.2531C14.6852 -92.7561 99.9212 -92.5728 143.62 -83.526C165.274 -79.0428 228.635 -98.6035 251.037 -73.6055C273.841 -48.1584 254.151 -20.9741 250.782 -1.04678C244.104 38.4563 159.037 102.86 115.339 93.8137Z" fill="#ABD5ED"/>
</g>
<g filter="url(#filter33_f_1_9207)">
<path d="M88.9159 100.49C51.1382 76.7363 19.7076 -40.1454 39.7748 -74.8208C59.842 -109.496 139.635 -79.5246 177.413 -55.771C196.133 -44 262.334 -40.1743 274.583 -8.92167C287.052 22.8924 259.099 41.4769 248.976 58.969C228.909 93.6445 126.694 124.243 88.9159 100.49Z" fill="white"/>
</g>
<g filter="url(#filter34_f_1_9207)">
<path d="M115.339 93.8137C71.6403 84.7669 1.32961 -13.75 8.0074 -53.2531C14.6852 -92.7561 99.9212 -92.5728 143.62 -83.526C165.274 -79.0428 228.635 -98.6035 251.037 -73.6055C273.841 -48.1584 254.151 -20.9741 250.782 -1.04678C244.104 38.4563 159.037 102.86 115.339 93.8137Z" fill="#ABD5ED"/>
</g>
<g filter="url(#filter35_f_1_9207)">
<path d="M72.0867 125.525C39.0312 104.741 37.0182 41.1528 57.0854 6.47728C77.1527 -28.1982 116.118 -54.8242 149.174 -34.0399C165.554 -23.7402 196.218 -16.1906 205.686 13.3139C215.325 43.3485 185.854 76.6584 175.731 94.1505C155.664 128.826 105.142 146.309 72.0867 125.525Z" fill="white"/>
</g>
<g filter="url(#filter36_f_1_9207)">
<path d="M108.329 123.162C70.0934 115.247 45.9762 56.3754 52.654 16.8724C59.3318 -22.6307 86.5296 -61.1994 124.766 -53.2835C143.713 -49.3607 175.081 -53.008 194.267 -28.6758C213.798 -3.90643 197.833 37.6048 194.465 57.5321C187.787 97.0352 146.566 131.078 108.329 123.162Z" fill="#ABD5ED"/>
</g>
</g>
</g>
</g>
<mask id="mask6_1_9207" style="mask-type:alpha" maskUnits="userSpaceOnUse" x="-50" y="-66" width="283" height="286">
<path d="M119.919 87.4955C83.067 110.624 -24.9583 -10.8643 -39.7205 -65.8049L-49.2979 162.648L223.886 219.185C239.674 137.376 229.774 26.968 225.78 32.7472C220.788 39.9712 156.771 64.3667 119.919 87.4955Z" fill="#F6F8FC"/>
</mask>
<g mask="url(#mask6_1_9207)">
<mask id="mask7_1_9207" style="mask-type:alpha" maskUnits="userSpaceOnUse" x="-94" y="-162" width="388" height="353">
<path d="M-93.5432 190.442L-46.4716 -161.926L292.418 -82.2497C293.423 -6.14882 294.916 146.299 292.853 147.284C290.789 148.268 34.3957 176.466 -93.5432 190.442Z" fill="url(#paint4_linear_1_9207)"/>
</mask>
<g mask="url(#mask7_1_9207)">
<mask id="mask8_1_9207" style="mask-type:alpha" maskUnits="userSpaceOnUse" x="-67" y="-92" width="368" height="282">
<path d="M-48.7236 -91.593C-56.3439 9.48475 -66.0459 138.429 -66.7998 143.414L282.149 189.153L300.226 -45.8541L-48.7236 -91.593Z" fill="url(#paint5_linear_1_9207)"/>
</mask>
<g mask="url(#mask8_1_9207)">
<path d="M77.4687 121.578C104.619 123.824 128.784 91.4446 129.985 60.7234C131.185 30.0022 121.77 -11.2229 92.6405 -13.6323C78.2054 -14.8263 61.481 -36.8124 43.7332 -22.9325C25.6665 -8.80319 27.9991 33.4251 27.3936 48.9224C26.1932 79.6436 50.3189 119.332 77.4687 121.578Z" fill="url(#paint6_linear_1_9207)"/>
<g filter="url(#filter37_f_1_9207)">
<path d="M77.4119 121.047C108.609 123.628 132.422 87.4375 133.754 53.3365C135.087 19.2355 125.065 -26.4895 93.868 -29.0699C78.4084 -30.3487 60.5629 -55.5838 41.5321 -40.1215C22.1594 -24.3814 24.5936 22.4798 23.9215 39.6821C22.5891 73.7831 46.215 118.467 77.4119 121.047Z" fill="url(#paint7_linear_1_9207)"/>
</g>
<g filter="url(#filter38_f_1_9207)">
<path d="M78.616 115.976C91.9378 130.595 143.424 85.1187 144.688 52.7532C145.953 20.3878 133.671 -23.2393 96.7191 -26.2958C78.4078 -27.8104 57.1704 -55.1417 34.7853 -40.8239C11.9979 -26.2488 15.2019 21.0478 14.564 37.3746C13.2994 69.7401 57.2178 130.545 78.616 115.976Z" fill="url(#paint8_linear_1_9207)"/>
</g>
<g filter="url(#filter39_f_1_9207)">
<path d="M82.6448 103.443C123.234 99.1958 158.175 61.8747 159.588 25.7062C161.002 -10.4623 142.079 -51.2539 102.939 -54.4913C83.5438 -56.0956 60.1509 -97.5776 36.4037 -81.4725C12.23 -65.0781 15.6364 -15.3076 14.9235 2.93762C13.5103 39.1061 35.625 108.364 82.6448 103.443Z" fill="url(#paint9_linear_1_9207)"/>
</g>
<g filter="url(#filter40_f_1_9207)">
<path d="M104.015 105.561C131.763 93.2066 194.225 54.6785 195.313 19.391C196.402 -15.8966 91.562 -47.9109 49.4538 -51.5822C28.5871 -53.4014 3.66649 -69.0774 -21.667 -53.6664C-47.4556 -37.9786 -20.4765 8.55926 0.394049 48.8376C28.1086 102.324 75.5915 130.884 104.015 105.561Z" fill="url(#paint10_linear_1_9207)"/>
</g>
<g filter="url(#filter41_f_1_9207)">
<path d="M77.0461 93.7565C120.561 97.5504 206.519 30.7282 207.632 -5.36395C208.746 -41.4561 127.183 -64.0243 83.6683 -67.8182C62.1045 -69.6982 5.21457 -103.583 -20.9595 -87.8434C-47.6038 -71.8211 -33.9311 -42.959 -34.4928 -24.7522C-35.6062 11.3399 33.5311 89.9626 77.0461 93.7565Z" fill="url(#paint11_linear_1_9207)"/>
</g>
<g filter="url(#filter42_f_1_9207)">
<path d="M77.0461 93.7565C120.561 97.5504 206.519 30.7282 207.632 -5.36395C208.746 -41.4561 127.183 -64.0243 83.6683 -67.8182C62.1045 -69.6982 5.21457 -103.583 -20.9595 -87.8434C-47.6038 -71.8211 -33.9311 -42.959 -34.4928 -24.7522C-35.6062 11.3399 33.5311 89.9626 77.0461 93.7565Z" fill="url(#paint12_linear_1_9207)"/>
</g>
<g filter="url(#filter43_f_1_9207)">
<path d="M77.0461 93.7565C120.561 97.5504 206.519 30.7282 207.632 -5.36395C208.746 -41.4561 127.183 -64.0243 83.6683 -67.8182C62.1045 -69.6982 5.21457 -103.583 -20.9595 -87.8434C-47.6038 -71.8211 -33.9311 -42.959 -34.4928 -24.7522C-35.6062 11.3399 33.5311 89.9626 77.0461 93.7565Z" fill="url(#paint13_linear_1_9207)"/>
</g>
<g filter="url(#filter44_f_1_9207)">
<path d="M77.0461 93.7565C120.561 97.5504 206.519 30.7282 207.632 -5.36395C208.746 -41.4561 127.183 -64.0243 83.6683 -67.8182C62.1045 -69.6982 5.21457 -103.583 -20.9595 -87.8434C-47.6038 -71.8211 -33.9311 -42.959 -34.4928 -24.7522C-35.6062 11.3399 33.5311 89.9626 77.0461 93.7565Z" fill="url(#paint14_linear_1_9207)"/>
</g>
<g filter="url(#filter45_f_1_9207)">
<path d="M78.2603 120.706C116.415 123.602 151.982 71.8251 154.045 30.643C156.109 -10.5391 138.403 -56.5721 100.248 -59.4674C81.3407 -60.9022 52.2042 -73.3669 28.7129 -54.5637C4.79951 -35.4227 11.1646 10.3735 10.1236 31.1479C8.06012 72.33 40.1055 117.811 78.2603 120.706Z" fill="url(#paint15_linear_1_9207)"/>
</g>
<path d="M72.3047 120.96C98.926 128.316 127.917 101.577 133.842 72.06C139.767 42.5431 136.766 0.829818 108.203 -7.06263C94.0494 -10.9737 80.8244 -35.4538 61.0577 -25.4017C40.936 -15.1691 36.7477 26.1638 33.7589 41.0536C27.834 70.5705 45.6835 113.604 72.3047 120.96Z" fill="#92BDFF"/>
<g filter="url(#filter46_f_1_9207)">
<path d="M72.3254 120.422C102.915 128.875 132.143 98.3785 138.72 65.6143C145.296 32.8502 142.386 -13.336 111.796 -21.7886C96.6375 -25.9773 82.7995 -53.8172 61.5147 -42.4778C39.8476 -30.9348 35.0466 14.9034 31.729 31.4313C25.1523 64.1954 41.7358 111.97 72.3254 120.422Z" fill="#92BDFF"/>
</g>
<g filter="url(#filter47_f_1_9207)">
<path d="M74.3046 115.749C85.2848 132.446 143.43 98.2402 149.672 67.1435C155.914 36.0469 150.435 -8.53935 114.203 -18.5512C96.2479 -23.5125 79.3638 -54.0295 54.9235 -44.4385C30.0442 -34.6752 25.9407 11.7315 22.7919 27.4183C16.55 58.5149 50.8061 125.772 74.3046 115.749Z" fill="#92BDFF"/>
</g>
<g filter="url(#filter48_f_1_9207)">
<path d="M80.2409 104.378C121.211 108.012 161.667 78.5441 168.642 43.7935C175.618 9.04287 163.106 -34.0654 124.729 -44.6699C105.711 -49.925 88.8654 -94.5548 62.797 -83.4933C36.2602 -72.233 31.9767 -23.3923 28.4579 -5.86231C21.4825 28.8883 32.7793 100.168 80.2409 104.378Z" fill="#92BDFF"/>
</g>
<g filter="url(#filter49_f_1_9207)">
<path d="M101.138 110.509C130.602 103.842 198.58 78.4585 205.097 44.4989C211.614 10.5393 112.411 -40.4679 71.1518 -52.0592C50.7057 -57.8032 28.3676 -77.7378 0.830532 -67.651C-27.2013 -57.383 -7.57278 -7.17346 6.95256 35.8094C26.2411 92.8875 69.0052 129.603 101.138 110.509Z" fill="#92BDFF"/>
</g>
<g filter="url(#filter50_f_1_9207)">
<path d="M76.1744 93.9287C118.812 105.907 214.486 57.6118 221.152 22.8779C227.818 -11.8561 150.28 -49.2744 107.642 -61.2529C86.5133 -67.1888 35.2259 -110.855 6.80327 -100.611C-22.13 -90.1827 -12.9955 -59.6272 -16.3581 -42.1057C-23.024 -7.37178 33.5366 81.9502 76.1744 93.9287Z" fill="#92BDFF"/>
</g>
<g filter="url(#filter51_f_1_9207)">
<path d="M76.1744 93.9287C118.812 105.907 214.486 57.6118 221.152 22.8779C227.818 -11.8561 150.28 -49.2744 107.642 -61.2529C86.5133 -67.1888 35.2259 -110.855 6.80327 -100.611C-22.13 -90.1827 -12.9955 -59.6272 -16.3581 -42.1057C-23.024 -7.37178 33.5366 81.9502 76.1744 93.9287Z" fill="#92BDFF"/>
</g>
<g filter="url(#filter52_f_1_9207)">
<path d="M76.1744 93.9287C118.812 105.907 214.486 57.6118 221.152 22.8779C227.818 -11.8561 150.28 -49.2744 107.642 -61.2529C86.5133 -67.1888 35.2259 -110.855 6.80327 -100.611C-22.13 -90.1827 -12.9955 -59.6272 -16.3581 -42.1057C-23.024 -7.37178 33.5366 81.9502 76.1744 93.9287Z" fill="#92BDFF"/>
</g>
<g filter="url(#filter53_f_1_9207)">
<path d="M76.1744 93.9287C118.812 105.907 214.486 57.6118 221.152 22.8779C227.818 -11.8561 150.28 -49.2744 107.642 -61.2529C86.5133 -67.1888 35.2259 -110.855 6.80327 -100.611C-22.13 -90.1827 -12.9955 -59.6272 -16.3581 -42.1057C-23.024 -7.37178 33.5366 81.9502 76.1744 93.9287Z" fill="#92BDFF"/>
</g>
<g filter="url(#filter54_f_1_9207)">
<path d="M73.2246 120.261C110.677 130.347 153.98 87.0018 162.374 47.5208C170.767 8.03982 160.272 -39.911 122.82 -49.9964C104.261 -54.9943 77.2405 -72.6241 51.0106 -58.9013C24.3094 -44.9319 23.5768 0.6253 19.3426 20.5415C10.9489 60.0225 35.7725 110.176 73.2246 120.261Z" fill="#92BDFF"/>
</g>
</g>
</g>
</g>
<mask id="mask9_1_9207" style="mask-type:alpha" maskUnits="userSpaceOnUse" x="-46" y="-45" width="280" height="243">
<path d="M120.074 86.5411C84.1414 103.915 -26.8468 0.975071 -43.1597 -44.2573L-45.8499 141.079L227.334 197.616C240.579 131.726 227.44 41.5927 223.644 46.1359C218.899 51.815 156.007 69.1669 120.074 86.5411Z" fill="#F6F8FC"/>
</mask>
<g mask="url(#mask9_1_9207)">
<mask id="mask10_1_9207" style="mask-type:alpha" maskUnits="userSpaceOnUse" x="-80" y="-130" width="385" height="286">
<path d="M-79.0825 155.471L-42.8335 -129.143L296.341 -51.2517C299.614 10.649 305.655 134.631 303.633 135.351C301.612 136.071 47.6474 149.065 -79.0825 155.471Z" fill="url(#paint16_linear_1_9207)"/>
</mask>
<g mask="url(#mask10_1_9207)">
<mask id="mask11_1_9207" style="mask-type:alpha" maskUnits="userSpaceOnUse" x="-54" y="-73" width="360" height="242">
<path d="M-42.9729 -72.0527C-47.5251 9.81747 -53.3131 114.259 -53.9134 118.282L294.244 168.976L305.185 -21.3595L-42.9729 -72.0527Z" fill="url(#paint17_linear_1_9207)"/>
</mask>
<g mask="url(#mask11_1_9207)">
<path d="M86.6623 113.534C115.491 121.865 142.126 102.501 144.274 78.8619C146.423 55.2223 137.572 20.8273 106.642 11.889C91.3141 7.45965 74.1398 -13.7209 54.8594 -7.2113C35.2327 -0.584795 36.5175 32.8748 35.4337 44.7998C33.2852 68.4393 57.8337 105.204 86.6623 113.534Z" fill="#75ACFF"/>
<g filter="url(#filter55_f_1_9207)">
<path d="M86.6179 113.101C119.744 122.673 146.111 100.255 148.496 74.0148C150.881 47.7746 141.513 9.72724 108.387 0.154579C91.9713 -4.58914 73.6962 -28.5723 53.0056 -21.1411C31.9434 -13.5765 33.205 23.5166 32.0019 36.7535C29.6171 62.9938 53.4921 103.528 86.6179 113.101Z" fill="#75ACFF"/>
</g>
<g filter="url(#filter56_f_1_9207)">
<path d="M88.0438 109.446C101.806 124.063 157.885 101.12 160.149 76.2147C162.413 51.3099 150.579 14.3488 111.343 3.01035C91.8994 -2.60843 70.0742 -29.0467 45.8465 -23.3202C21.1835 -17.4908 23.2519 20.128 22.1101 32.6913C19.8466 57.5961 64.8593 115.607 88.0438 109.446Z" fill="#75ACFF"/>
</g>
<g filter="url(#filter57_f_1_9207)">
<path d="M92.6909 100.657C136.005 107.188 174.247 86.5867 176.777 58.7555C179.306 30.9243 160.325 -5.43788 118.766 -17.4477C98.1715 -23.3991 74.4536 -61.3827 48.7258 -54.5941C22.5358 -47.6836 24.7495 -8.08867 23.4735 5.9508C20.944 33.782 42.514 93.092 92.6909 100.657Z" fill="#75ACFF"/>
</g>
<g filter="url(#filter58_f_1_9207)">
<path d="M126.863 107.202C154.353 100.039 216.07 75.2827 216.609 46.9671C217.148 18.6515 112.059 -17.6761 69.9932 -24.8664C49.1475 -28.4296 24.0427 -43.5622 -0.991986 -33.695C-26.4764 -23.6504 1.16061 16.5491 22.6065 51.0924C51.0849 96.9632 98.8987 124.742 126.863 107.202Z" fill="#75ACFF"/>
</g>
<g filter="url(#filter59_f_1_9207)">
<path d="M99.7767 94.9826C143.248 102.413 227.967 57.2272 228.518 28.266C229.069 -0.695181 147.349 -27.0737 103.878 -34.5042C82.3357 -38.1864 25.0547 -71.2002 -0.813516 -61.1529C-27.1464 -50.9251 -13.0585 -26.3014 -13.3365 -11.6919C-13.8877 17.2693 56.3057 87.5521 99.7767 94.9826Z" fill="#75ACFF"/>
</g>
<g filter="url(#filter60_f_1_9207)">
<path d="M99.7767 94.9826C143.248 102.413 227.967 57.2272 228.518 28.266C229.069 -0.695181 147.349 -27.0737 103.878 -34.5042C82.3357 -38.1864 25.0547 -71.2002 -0.813516 -61.1529C-27.1464 -50.9251 -13.0585 -26.3014 -13.3365 -11.6919C-13.8877 17.2693 56.3057 87.5521 99.7767 94.9826Z" fill="#75ACFF"/>
</g>
<g filter="url(#filter61_f_1_9207)">
<path d="M99.7767 94.9826C143.248 102.413 227.967 57.2272 228.518 28.266C229.069 -0.695181 147.349 -27.0737 103.878 -34.5042C82.3357 -38.1864 25.0547 -71.2002 -0.813516 -61.1529C-27.1464 -50.9251 -13.0585 -26.3014 -13.3365 -11.6919C-13.8877 17.2693 56.3057 87.5521 99.7767 94.9826Z" fill="#75ACFF"/>
</g>
<g filter="url(#filter62_f_1_9207)">
<path d="M99.7767 94.9826C143.248 102.413 227.967 57.2272 228.518 28.266C229.069 -0.695181 147.349 -27.0737 103.878 -34.5042C82.3357 -38.1864 25.0547 -71.2002 -0.813516 -61.1529C-27.1464 -50.9251 -13.0585 -26.3014 -13.3365 -11.6919C-13.8877 17.2693 56.3057 87.5521 99.7767 94.9826Z" fill="#75ACFF"/>
</g>
<g filter="url(#filter63_f_1_9207)">
<path d="M102.111 114.995C140.481 120.582 175.312 94.1007 176.677 70.3558C178.042 46.611 159.469 18.0223 121.099 12.4354C102.084 9.66687 72.6074 -0.564099 49.3372 7.97105C25.6489 16.6595 32.8284 43.9505 32.1399 55.9286C30.7751 79.6735 63.741 109.408 102.111 114.995Z" fill="#75ACFF"/>
</g>
</g>
</g>
</g>
<g filter="url(#filter64_f_1_9207)">
<path d="M141.705 111.577C169.071 97.523 178.983 70.6046 196.216 58.3701C213.45 46.1355 230.502 38.3449 246.673 40.4711" stroke="url(#paint18_linear_1_9207)" stroke-width="14.2635"/>
</g>
</g>
<path fill-rule="evenodd" clip-rule="evenodd" d="M103.419 54.5423C104.95 54.5423 106.192 53.3018 106.192 51.7714C106.192 50.2411 104.95 49.0005 103.419 49.0005C101.888 49.0005 100.647 50.2411 100.647 51.7714C100.647 53.3018 101.888 54.5423 103.419 54.5423Z" fill="white"/>
<path fill-rule="evenodd" clip-rule="evenodd" d="M103.419 61.8133C104.95 61.8133 106.192 60.5728 106.192 59.0424C106.192 57.5121 104.95 56.2715 103.419 56.2715C101.888 56.2715 100.647 57.5121 100.647 59.0424C100.647 60.5728 101.888 61.8133 103.419 61.8133Z" fill="white"/>
<path fill-rule="evenodd" clip-rule="evenodd" d="M103.419 69.0814C104.95 69.0814 106.192 67.8408 106.192 66.3105C106.192 64.7801 104.95 63.5396 103.419 63.5396C101.888 63.5396 100.647 64.7801 100.647 66.3105C100.647 67.8408 101.888 69.0814 103.419 69.0814Z" fill="white"/>
<path fill-rule="evenodd" clip-rule="evenodd" d="M96.359 61.8133C97.8902 61.8133 99.1315 60.5728 99.1315 59.0424C99.1315 57.5121 97.8902 56.2715 96.359 56.2715C94.8279 56.2715 93.5867 57.5121 93.5867 59.0424C93.5867 60.5728 94.8279 61.8133 96.359 61.8133Z" fill="white"/>
<path fill-rule="evenodd" clip-rule="evenodd" d="M96.359 69.0814C97.8902 69.0814 99.1315 67.8408 99.1315 66.3105C99.1315 64.7802 97.8902 63.5396 96.359 63.5396C94.8279 63.5396 93.5867 64.7802 93.5867 66.3105C93.5867 67.8408 94.8279 69.0814 96.359 69.0814Z" fill="white"/>
<path fill-rule="evenodd" clip-rule="evenodd" d="M89.299 69.0814C90.8302 69.0814 92.0714 67.8408 92.0714 66.3105C92.0714 64.7801 90.8302 63.5396 89.299 63.5396C87.7679 63.5396 86.5266 64.7801 86.5266 66.3105C86.5266 67.8408 87.7679 69.0814 89.299 69.0814Z" fill="white"/>
<path d="M117.626 66.041V51.4956H123.194C124.245 51.4956 125.119 51.6613 125.815 51.9927C126.516 52.3194 127.039 52.7669 127.385 53.335C127.735 53.9032 127.91 54.5472 127.91 55.2669C127.91 55.8587 127.797 56.3654 127.569 56.7868C127.342 57.2034 127.037 57.542 126.653 57.8024C126.27 58.0628 125.841 58.2498 125.368 58.3635V58.5055C125.884 58.5339 126.378 58.6925 126.852 58.9814C127.33 59.2654 127.721 59.6679 128.024 60.1887C128.327 60.7096 128.478 61.3393 128.478 62.0779C128.478 62.8308 128.296 63.5079 127.931 64.1092C127.567 64.7058 127.018 65.1769 126.284 65.5225C125.55 65.8682 124.627 66.041 123.514 66.041H117.626ZM120.261 63.8393H123.095C124.051 63.8393 124.74 63.657 125.162 63.2924C125.588 62.9231 125.801 62.4496 125.801 61.872C125.801 61.4411 125.694 61.0529 125.481 60.7072C125.268 60.3568 124.965 60.0822 124.572 59.8833C124.179 59.6797 123.71 59.5779 123.166 59.5779H120.261V63.8393ZM120.261 57.6816H122.868C123.322 57.6816 123.732 57.5988 124.096 57.4331C124.461 57.2626 124.747 57.0235 124.956 56.7157C125.169 56.4032 125.275 56.0339 125.275 55.6078C125.275 55.0443 125.076 54.5803 124.679 54.2157C124.286 53.8511 123.701 53.6689 122.924 53.6689H120.261V57.6816ZM135.415 66.2541C134.35 66.2541 133.427 66.0197 132.646 65.551C131.864 65.0822 131.258 64.4264 130.827 63.5836C130.401 62.7408 130.188 61.756 130.188 60.6291C130.188 59.5022 130.401 58.515 130.827 57.6674C131.258 56.8199 131.864 56.1618 132.646 55.693C133.427 55.2243 134.35 54.9899 135.415 54.9899C136.481 54.9899 137.404 55.2243 138.185 55.693C138.967 56.1618 139.57 56.8199 139.996 57.6674C140.427 58.515 140.643 59.5022 140.643 60.6291C140.643 61.756 140.427 62.7408 139.996 63.5836C139.57 64.4264 138.967 65.0822 138.185 65.551C137.404 66.0197 136.481 66.2541 135.415 66.2541ZM135.43 64.1944C136.007 64.1944 136.49 64.0358 136.879 63.7186C137.267 63.3966 137.556 62.9657 137.745 62.426C137.939 61.8862 138.036 61.2849 138.036 60.622C138.036 59.9544 137.939 59.3507 137.745 58.8109C137.556 58.2664 137.267 57.8332 136.879 57.5112C136.49 57.1892 136.007 57.0282 135.43 57.0282C134.838 57.0282 134.345 57.1892 133.952 57.5112C133.564 57.8332 133.273 58.2664 133.079 58.8109C132.889 59.3507 132.795 59.9544 132.795 60.622C132.795 61.2849 132.889 61.8862 133.079 62.426C133.273 62.9657 133.564 63.3966 133.952 63.7186C134.345 64.0358 134.838 64.1944 135.43 64.1944ZM147.583 66.2541C146.518 66.2541 145.595 66.0197 144.814 65.551C144.032 65.0822 143.426 64.4264 142.995 63.5836C142.569 62.7408 142.356 61.756 142.356 60.6291C142.356 59.5022 142.569 58.515 142.995 57.6674C143.426 56.8199 144.032 56.1618 144.814 55.693C145.595 55.2243 146.518 54.9899 147.583 54.9899C148.649 54.9899 149.572 55.2243 150.353 55.693C151.135 56.1618 151.738 56.8199 152.164 57.6674C152.595 58.515 152.811 59.5022 152.811 60.6291C152.811 61.756 152.595 62.7408 152.164 63.5836C151.738 64.4264 151.135 65.0822 150.353 65.551C149.572 66.0197 148.649 66.2541 147.583 66.2541ZM147.598 64.1944C148.175 64.1944 148.658 64.0358 149.047 63.7186C149.435 63.3966 149.724 62.9657 149.913 62.426C150.107 61.8862 150.204 61.2849 150.204 60.622C150.204 59.9544 150.107 59.3507 149.913 58.8109C149.724 58.2664 149.435 57.8332 149.047 57.5112C148.658 57.1892 148.175 57.0282 147.598 57.0282C147.006 57.0282 146.513 57.1892 146.12 57.5112C145.732 57.8332 145.441 58.2664 145.247 58.8109C145.057 59.3507 144.963 59.9544 144.963 60.622C144.963 61.2849 145.057 61.8862 145.247 62.426C145.441 62.9657 145.732 63.3966 146.12 63.7186C146.513 64.0358 147.006 64.1944 147.598 64.1944ZM163.615 58.0154L161.271 58.2711C161.205 58.0344 161.089 57.8118 160.923 57.6035C160.762 57.3952 160.545 57.2271 160.27 57.0993C159.995 56.9714 159.659 56.9075 159.261 56.9075C158.726 56.9075 158.277 57.0235 157.912 57.2555C157.552 57.4875 157.375 57.7882 157.379 58.1575C157.375 58.4747 157.491 58.7328 157.727 58.9316C157.969 59.1305 158.366 59.2939 158.92 59.4217L160.781 59.8194C161.813 60.042 162.58 60.3947 163.082 60.8777C163.589 61.3606 163.845 61.9927 163.849 62.774C163.845 63.4605 163.643 64.0666 163.246 64.5922C162.853 65.113 162.306 65.5202 161.605 65.8137C160.904 66.1073 160.099 66.2541 159.19 66.2541C157.855 66.2541 156.78 65.9747 155.966 65.416C155.152 64.8526 154.666 64.069 154.51 63.0652L157.017 62.8237C157.131 63.3161 157.372 63.6878 157.741 63.9387C158.111 64.1897 158.591 64.3152 159.183 64.3152C159.794 64.3152 160.284 64.1897 160.653 63.9387C161.027 63.6878 161.214 63.3777 161.214 63.0083C161.214 62.6958 161.094 62.4378 160.852 62.2342C160.616 62.0306 160.246 61.8743 159.744 61.7654L157.884 61.3748C156.837 61.157 156.063 60.7901 155.561 60.274C155.059 59.7531 154.811 59.095 154.815 58.2995C154.811 57.6272 154.993 57.0448 155.362 56.5524C155.736 56.0552 156.255 55.6717 156.918 55.4018C157.585 55.1272 158.355 54.9899 159.226 54.9899C160.504 54.9899 161.51 55.2621 162.244 55.8066C162.983 56.3511 163.44 57.0874 163.615 58.0154ZM171.417 55.1319V57.1206H165.146V55.1319H171.417ZM166.694 52.5183H169.265V62.7598C169.265 63.1054 169.317 63.3706 169.421 63.5552C169.53 63.7351 169.672 63.8583 169.847 63.9245C170.022 63.9908 170.217 64.024 170.43 64.024C170.591 64.024 170.737 64.0121 170.87 63.9885C171.007 63.9648 171.112 63.9435 171.183 63.9245L171.616 65.9345C171.478 65.9818 171.282 66.0339 171.026 66.0907C170.775 66.1475 170.468 66.1807 170.103 66.1902C169.459 66.2091 168.879 66.112 168.363 65.899C167.847 65.6812 167.437 65.345 167.134 64.8904C166.836 64.4359 166.689 63.8677 166.694 63.1859V52.5183ZM178.642 66.041V51.4956H184.096C185.214 51.4956 186.151 51.7039 186.909 52.1206C187.671 52.5372 188.246 53.1101 188.635 53.8393C189.028 54.5637 189.224 55.3876 189.224 56.3109C189.224 57.2437 189.028 58.0723 188.635 58.7967C188.242 59.5211 187.662 60.0917 186.895 60.5083C186.127 60.9203 185.183 61.1262 184.061 61.1262H180.446V58.96H183.706C184.359 58.96 184.894 58.8464 185.311 58.6191C185.727 58.3919 186.035 58.0794 186.234 57.6816C186.438 57.2839 186.539 56.827 186.539 56.3109C186.539 55.7948 186.438 55.3403 186.234 54.9473C186.035 54.5543 185.725 54.2489 185.304 54.0311C184.887 53.8085 184.35 53.6973 183.691 53.6973H181.277V66.041H178.642ZM196.001 66.2541C194.936 66.2541 194.013 66.0197 193.232 65.551C192.45 65.0822 191.844 64.4264 191.413 63.5836C190.987 62.7408 190.774 61.756 190.774 60.6291C190.774 59.5022 190.987 58.515 191.413 57.6674C191.844 56.8199 192.45 56.1618 193.232 55.693C194.013 55.2243 194.936 54.9899 196.001 54.9899C197.067 54.9899 197.99 55.2243 198.771 55.693C199.553 56.1618 200.156 56.8199 200.582 57.6674C201.013 58.515 201.229 59.5022 201.229 60.6291C201.229 61.756 201.013 62.7408 200.582 63.5836C200.156 64.4264 199.553 65.0822 198.771 65.551C197.99 66.0197 197.067 66.2541 196.001 66.2541ZM196.016 64.1944C196.593 64.1944 197.076 64.0358 197.464 63.7186C197.853 63.3966 198.142 62.9657 198.331 62.426C198.525 61.8862 198.622 61.2849 198.622 60.622C198.622 59.9544 198.525 59.3507 198.331 58.8109C198.142 58.2664 197.853 57.8332 197.464 57.5112C197.076 57.1892 196.593 57.0282 196.016 57.0282C195.424 57.0282 194.931 57.1892 194.538 57.5112C194.15 57.8332 193.859 58.2664 193.665 58.8109C193.475 59.3507 193.381 59.9544 193.381 60.622C193.381 61.2849 193.475 61.8862 193.665 62.426C193.859 62.9657 194.15 63.3966 194.538 63.7186C194.931 64.0358 195.424 64.1944 196.016 64.1944ZM212.033 58.0154L209.689 58.2711C209.623 58.0344 209.507 57.8118 209.341 57.6035C209.18 57.3952 208.962 57.2271 208.688 57.0993C208.413 56.9714 208.077 56.9075 207.679 56.9075C207.144 56.9075 206.694 57.0235 206.33 57.2555C205.97 57.4875 205.792 57.7882 205.797 58.1575C205.792 58.4747 205.908 58.7328 206.145 58.9316C206.387 59.1305 206.784 59.2939 207.338 59.4217L209.199 59.8194C210.231 60.042 210.998 60.3947 211.5 60.8777C212.007 61.3606 212.263 61.9927 212.267 62.774C212.263 63.4605 212.061 64.0666 211.664 64.5922C211.271 65.113 210.724 65.5202 210.023 65.8137C209.322 66.1073 208.517 66.2541 207.608 66.2541C206.273 66.2541 205.198 65.9747 204.384 65.416C203.569 64.8526 203.084 64.069 202.928 63.0652L205.435 62.8237C205.549 63.3161 205.79 63.6878 206.159 63.9387C206.529 64.1897 207.009 64.3152 207.601 64.3152C208.212 64.3152 208.702 64.1897 209.071 63.9387C209.445 63.6878 209.632 63.3777 209.632 63.0083C209.632 62.6958 209.512 62.4378 209.27 62.2342C209.033 62.0306 208.664 61.8743 208.162 61.7654L206.301 61.3748C205.255 61.157 204.481 60.7901 203.979 60.274C203.477 59.7531 203.229 59.095 203.233 58.2995C203.229 57.6272 203.411 57.0448 203.78 56.5524C204.154 56.0552 204.673 55.6717 205.336 55.4018C206.003 55.1272 206.773 54.9899 207.644 54.9899C208.922 54.9899 209.928 55.2621 210.662 55.8066C211.401 56.3511 211.858 57.0874 212.033 58.0154ZM219.835 55.1319V57.1206H213.564V55.1319H219.835ZM215.112 52.5183H217.683V62.7598C217.683 63.1054 217.735 63.3706 217.839 63.5552C217.948 63.7351 218.09 63.8583 218.265 63.9245C218.44 63.9908 218.635 64.024 218.848 64.024C219.009 64.024 219.155 64.0121 219.288 63.9885C219.425 63.9648 219.529 63.9435 219.6 63.9245L220.034 65.9345C219.896 65.9818 219.7 66.0339 219.444 66.0907C219.193 66.1475 218.886 66.1807 218.521 66.1902C217.877 66.2091 217.297 66.112 216.781 65.899C216.265 65.6812 215.855 65.345 215.552 64.8904C215.254 64.4359 215.107 63.8677 215.112 63.1859V52.5183Z" fill="white"/>
</g>
</g>
<defs>
<filter id="filter0_d_1_9207" x="0" y="0" width="310" height="124" filterUnits="userSpaceOnUse" color-interpolation-filters="sRGB">
<feFlood flood-opacity="0" result="BackgroundImageFix"/>
<feColorMatrix in="SourceAlpha" type="matrix" values="0 0 0 0 0 0 0 0 0 0 0 0 0 0 0 0 0 0 127 0" result="hardAlpha"/>
<feOffset dy="3"/>
<feGaussianBlur stdDeviation="6"/>
<feComposite in2="hardAlpha" operator="out"/>
<feColorMatrix type="matrix" values="0 0 0 0 0.137255 0 0 0 0 0.533333 0 0 0 0 1 0 0 0 0.33 0"/>
<feBlend mode="normal" in2="BackgroundImageFix" result="effect1_dropShadow_1_9207"/>
<feBlend mode="normal" in="SourceGraphic" in2="effect1_dropShadow_1_9207" result="shape"/>
</filter>
<filter id="filter1_f_1_9207" x="182.172" y="25.0615" width="132.449" height="162.563" filterUnits="userSpaceOnUse" color-interpolation-filters="sRGB">
<feFlood flood-opacity="0" result="BackgroundImageFix"/>
<feBlend mode="normal" in="SourceGraphic" in2="BackgroundImageFix" result="shape"/>
<feGaussianBlur stdDeviation="0.333122" result="effect1_foregroundBlur_1_9207"/>
</filter>
<filter id="filter2_f_1_9207" x="170.964" y="24.1452" width="154.872" height="163.186" filterUnits="userSpaceOnUse" color-interpolation-filters="sRGB">
<feFlood flood-opacity="0" result="BackgroundImageFix"/>
<feBlend mode="normal" in="SourceGraphic" in2="BackgroundImageFix" result="shape"/>
<feGaussianBlur stdDeviation="1.16593" result="effect1_foregroundBlur_1_9207"/>
</filter>
<filter id="filter3_f_1_9207" x="159.162" y="38.5282" width="175.688" height="189.29" filterUnits="userSpaceOnUse" color-interpolation-filters="sRGB">
<feFlood flood-opacity="0" result="BackgroundImageFix"/>
<feBlend mode="normal" in="SourceGraphic" in2="BackgroundImageFix" result="shape"/>
<feGaussianBlur stdDeviation="1.66561" result="effect1_foregroundBlur_1_9207"/>
</filter>
<filter id="filter4_f_1_9207" x="104.52" y="22.3165" width="269.149" height="197.45" filterUnits="userSpaceOnUse" color-interpolation-filters="sRGB">
<feFlood flood-opacity="0" result="BackgroundImageFix"/>
<feBlend mode="normal" in="SourceGraphic" in2="BackgroundImageFix" result="shape"/>
<feGaussianBlur stdDeviation="4.49714" result="effect1_foregroundBlur_1_9207"/>
</filter>
<filter id="filter5_f_1_9207" x="74.877" y="28.9187" width="319.913" height="238.767" filterUnits="userSpaceOnUse" color-interpolation-filters="sRGB">
<feFlood flood-opacity="0" result="BackgroundImageFix"/>
<feBlend mode="normal" in="SourceGraphic" in2="BackgroundImageFix" result="shape"/>
<feGaussianBlur stdDeviation="12.6221" result="effect1_foregroundBlur_1_9207"/>
</filter>
<filter id="filter6_f_1_9207" x="74.877" y="28.9187" width="319.913" height="238.767" filterUnits="userSpaceOnUse" color-interpolation-filters="sRGB">
<feFlood flood-opacity="0" result="BackgroundImageFix"/>
<feBlend mode="normal" in="SourceGraphic" in2="BackgroundImageFix" result="shape"/>
<feGaussianBlur stdDeviation="12.6221" result="effect1_foregroundBlur_1_9207"/>
</filter>
<filter id="filter7_f_1_9207" x="74.877" y="28.9187" width="319.913" height="238.767" filterUnits="userSpaceOnUse" color-interpolation-filters="sRGB">
<feFlood flood-opacity="0" result="BackgroundImageFix"/>
<feBlend mode="normal" in="SourceGraphic" in2="BackgroundImageFix" result="shape"/>
<feGaussianBlur stdDeviation="12.6221" result="effect1_foregroundBlur_1_9207"/>
</filter>
<filter id="filter8_f_1_9207" x="74.877" y="28.9187" width="319.913" height="238.767" filterUnits="userSpaceOnUse" color-interpolation-filters="sRGB">
<feFlood flood-opacity="0" result="BackgroundImageFix"/>
<feBlend mode="normal" in="SourceGraphic" in2="BackgroundImageFix" result="shape"/>
<feGaussianBlur stdDeviation="12.6221" result="effect1_foregroundBlur_1_9207"/>
</filter>
<filter id="filter9_f_1_9207" x="154.676" y="14.6307" width="184.218" height="200.514" filterUnits="userSpaceOnUse" color-interpolation-filters="sRGB">
<feFlood flood-opacity="0" result="BackgroundImageFix"/>
<feBlend mode="normal" in="SourceGraphic" in2="BackgroundImageFix" result="shape"/>
<feGaussianBlur stdDeviation="5.16339" result="effect1_foregroundBlur_1_9207"/>
</filter>
<filter id="filter10_f_1_9207" x="194.506" y="30.6753" width="125.303" height="163.141" filterUnits="userSpaceOnUse" color-interpolation-filters="sRGB">
<feFlood flood-opacity="0" result="BackgroundImageFix"/>
<feBlend mode="normal" in="SourceGraphic" in2="BackgroundImageFix" result="shape"/>
<feGaussianBlur stdDeviation="0.333122" result="effect1_foregroundBlur_1_9207"/>
</filter>
<filter id="filter11_f_1_9207" x="183.894" y="29.8447" width="146.464" height="163.686" filterUnits="userSpaceOnUse" color-interpolation-filters="sRGB">
<feFlood flood-opacity="0" result="BackgroundImageFix"/>
<feBlend mode="normal" in="SourceGraphic" in2="BackgroundImageFix" result="shape"/>
<feGaussianBlur stdDeviation="1.16593" result="effect1_foregroundBlur_1_9207"/>
</filter>
<filter id="filter12_f_1_9207" x="172.424" y="44.3084" width="166.292" height="190.018" filterUnits="userSpaceOnUse" color-interpolation-filters="sRGB">
<feFlood flood-opacity="0" result="BackgroundImageFix"/>
<feBlend mode="normal" in="SourceGraphic" in2="BackgroundImageFix" result="shape"/>
<feGaussianBlur stdDeviation="1.66561" result="effect1_foregroundBlur_1_9207"/>
</filter>
<filter id="filter13_f_1_9207" x="120.792" y="28.0914" width="254.585" height="195.852" filterUnits="userSpaceOnUse" color-interpolation-filters="sRGB">
<feFlood flood-opacity="0" result="BackgroundImageFix"/>
<feBlend mode="normal" in="SourceGraphic" in2="BackgroundImageFix" result="shape"/>
<feGaussianBlur stdDeviation="4.49714" result="effect1_foregroundBlur_1_9207"/>
</filter>
<filter id="filter14_f_1_9207" x="91.7161" y="34.7261" width="304.262" height="236.344" filterUnits="userSpaceOnUse" color-interpolation-filters="sRGB">
<feFlood flood-opacity="0" result="BackgroundImageFix"/>
<feBlend mode="normal" in="SourceGraphic" in2="BackgroundImageFix" result="shape"/>
<feGaussianBlur stdDeviation="12.6221" result="effect1_foregroundBlur_1_9207"/>
</filter>
<filter id="filter15_f_1_9207" x="91.7161" y="34.7261" width="304.262" height="236.344" filterUnits="userSpaceOnUse" color-interpolation-filters="sRGB">
<feFlood flood-opacity="0" result="BackgroundImageFix"/>
<feBlend mode="normal" in="SourceGraphic" in2="BackgroundImageFix" result="shape"/>
<feGaussianBlur stdDeviation="12.6221" result="effect1_foregroundBlur_1_9207"/>
</filter>
<filter id="filter16_f_1_9207" x="91.7161" y="34.7261" width="304.262" height="236.344" filterUnits="userSpaceOnUse" color-interpolation-filters="sRGB">
<feFlood flood-opacity="0" result="BackgroundImageFix"/>
<feBlend mode="normal" in="SourceGraphic" in2="BackgroundImageFix" result="shape"/>
<feGaussianBlur stdDeviation="12.6221" result="effect1_foregroundBlur_1_9207"/>
</filter>
<filter id="filter17_f_1_9207" x="91.7161" y="34.7261" width="304.262" height="236.344" filterUnits="userSpaceOnUse" color-interpolation-filters="sRGB">
<feFlood flood-opacity="0" result="BackgroundImageFix"/>
<feBlend mode="normal" in="SourceGraphic" in2="BackgroundImageFix" result="shape"/>
<feGaussianBlur stdDeviation="12.6221" result="effect1_foregroundBlur_1_9207"/>
</filter>
<filter id="filter18_f_1_9207" x="168.087" y="20.4076" width="174.989" height="199.45" filterUnits="userSpaceOnUse" color-interpolation-filters="sRGB">
<feFlood flood-opacity="0" result="BackgroundImageFix"/>
<feBlend mode="normal" in="SourceGraphic" in2="BackgroundImageFix" result="shape"/>
<feGaussianBlur stdDeviation="5.16339" result="effect1_foregroundBlur_1_9207"/>
</filter>
<filter id="filter19_f_1_9207" x="50.8601" y="-22.3967" width="143.217" height="154.537" filterUnits="userSpaceOnUse" color-interpolation-filters="sRGB">
<feFlood flood-opacity="0" result="BackgroundImageFix"/>
<feBlend mode="normal" in="SourceGraphic" in2="BackgroundImageFix" result="shape"/>
<feGaussianBlur stdDeviation="0.333122" result="effect1_foregroundBlur_1_9207"/>
</filter>
<filter id="filter20_f_1_9207" x="66.1255" y="-41.946" width="121.269" height="166.654" filterUnits="userSpaceOnUse" color-interpolation-filters="sRGB">
<feFlood flood-opacity="0" result="BackgroundImageFix"/>
<feBlend mode="normal" in="SourceGraphic" in2="BackgroundImageFix" result="shape"/>
<feGaussianBlur stdDeviation="0.333122" result="effect1_foregroundBlur_1_9207"/>
</filter>
<filter id="filter21_f_1_9207" x="46.2883" y="-25.2774" width="156.534" height="158.966" filterUnits="userSpaceOnUse" color-interpolation-filters="sRGB">
<feFlood flood-opacity="0" result="BackgroundImageFix"/>
<feBlend mode="normal" in="SourceGraphic" in2="BackgroundImageFix" result="shape"/>
<feGaussianBlur stdDeviation="1.16593" result="effect1_foregroundBlur_1_9207"/>
</filter>
<filter id="filter22_f_1_9207" x="54.5214" y="-41.9224" width="143.848" height="167.145" filterUnits="userSpaceOnUse" color-interpolation-filters="sRGB">
<feFlood flood-opacity="0" result="BackgroundImageFix"/>
<feBlend mode="normal" in="SourceGraphic" in2="BackgroundImageFix" result="shape"/>
<feGaussianBlur stdDeviation="1.16593" result="effect1_foregroundBlur_1_9207"/>
</filter>
<filter id="filter23_f_1_9207" x="44.9168" y="-56.7057" width="180.241" height="178.543" filterUnits="userSpaceOnUse" color-interpolation-filters="sRGB">
<feFlood flood-opacity="0" result="BackgroundImageFix"/>
<feBlend mode="normal" in="SourceGraphic" in2="BackgroundImageFix" result="shape"/>
<feGaussianBlur stdDeviation="1.66561" result="effect1_foregroundBlur_1_9207"/>
</filter>
<filter id="filter24_f_1_9207" x="44.212" y="-83.7099" width="162.738" height="194.14" filterUnits="userSpaceOnUse" color-interpolation-filters="sRGB">
<feFlood flood-opacity="0" result="BackgroundImageFix"/>
<feBlend mode="normal" in="SourceGraphic" in2="BackgroundImageFix" result="shape"/>
<feGaussianBlur stdDeviation="1.66561" result="effect1_foregroundBlur_1_9207"/>
</filter>
<filter id="filter25_f_1_9207" x="19.8265" y="-66.7248" width="246.29" height="204.475" filterUnits="userSpaceOnUse" color-interpolation-filters="sRGB">
<feFlood flood-opacity="0" result="BackgroundImageFix"/>
<feBlend mode="normal" in="SourceGraphic" in2="BackgroundImageFix" result="shape"/>
<feGaussianBlur stdDeviation="4.49714" result="effect1_foregroundBlur_1_9207"/>
</filter>
<filter id="filter26_f_1_9207" x="5.27231" y="-68.6156" width="254.832" height="195.472" filterUnits="userSpaceOnUse" color-interpolation-filters="sRGB">
<feFlood flood-opacity="0" result="BackgroundImageFix"/>
<feBlend mode="normal" in="SourceGraphic" in2="BackgroundImageFix" result="shape"/>
<feGaussianBlur stdDeviation="4.49714" result="effect1_foregroundBlur_1_9207"/>
</filter>
<filter id="filter27_f_1_9207" x="8.28004" y="-115.822" width="294.692" height="249.967" filterUnits="userSpaceOnUse" color-interpolation-filters="sRGB">
<feFlood flood-opacity="0" result="BackgroundImageFix"/>
<feBlend mode="normal" in="SourceGraphic" in2="BackgroundImageFix" result="shape"/>
<feGaussianBlur stdDeviation="12.6221" result="effect1_foregroundBlur_1_9207"/>
</filter>
<filter id="filter28_f_1_9207" x="-17.6799" y="-113.724" width="304.813" height="233.642" filterUnits="userSpaceOnUse" color-interpolation-filters="sRGB">
<feFlood flood-opacity="0" result="BackgroundImageFix"/>
<feBlend mode="normal" in="SourceGraphic" in2="BackgroundImageFix" result="shape"/>
<feGaussianBlur stdDeviation="12.6221" result="effect1_foregroundBlur_1_9207"/>
</filter>
<filter id="filter29_f_1_9207" x="8.28004" y="-115.822" width="294.692" height="249.967" filterUnits="userSpaceOnUse" color-interpolation-filters="sRGB">
<feFlood flood-opacity="0" result="BackgroundImageFix"/>
<feBlend mode="normal" in="SourceGraphic" in2="BackgroundImageFix" result="shape"/>
<feGaussianBlur stdDeviation="12.6221" result="effect1_foregroundBlur_1_9207"/>
</filter>
<filter id="filter30_f_1_9207" x="-17.6799" y="-113.724" width="304.813" height="233.642" filterUnits="userSpaceOnUse" color-interpolation-filters="sRGB">
<feFlood flood-opacity="0" result="BackgroundImageFix"/>
<feBlend mode="normal" in="SourceGraphic" in2="BackgroundImageFix" result="shape"/>
<feGaussianBlur stdDeviation="12.6221" result="effect1_foregroundBlur_1_9207"/>
</filter>
<filter id="filter31_f_1_9207" x="8.28004" y="-115.822" width="294.692" height="249.967" filterUnits="userSpaceOnUse" color-interpolation-filters="sRGB">
<feFlood flood-opacity="0" result="BackgroundImageFix"/>
<feBlend mode="normal" in="SourceGraphic" in2="BackgroundImageFix" result="shape"/>
<feGaussianBlur stdDeviation="12.6221" result="effect1_foregroundBlur_1_9207"/>
</filter>
<filter id="filter32_f_1_9207" x="-17.6799" y="-113.724" width="304.813" height="233.642" filterUnits="userSpaceOnUse" color-interpolation-filters="sRGB">
<feFlood flood-opacity="0" result="BackgroundImageFix"/>
<feBlend mode="normal" in="SourceGraphic" in2="BackgroundImageFix" result="shape"/>
<feGaussianBlur stdDeviation="12.6221" result="effect1_foregroundBlur_1_9207"/>
</filter>
<filter id="filter33_f_1_9207" x="8.28004" y="-115.822" width="294.692" height="249.967" filterUnits="userSpaceOnUse" color-interpolation-filters="sRGB">
<feFlood flood-opacity="0" result="BackgroundImageFix"/>
<feBlend mode="normal" in="SourceGraphic" in2="BackgroundImageFix" result="shape"/>
<feGaussianBlur stdDeviation="12.6221" result="effect1_foregroundBlur_1_9207"/>
</filter>
<filter id="filter34_f_1_9207" x="-17.6799" y="-113.724" width="304.813" height="233.642" filterUnits="userSpaceOnUse" color-interpolation-filters="sRGB">
<feFlood flood-opacity="0" result="BackgroundImageFix"/>
<feBlend mode="normal" in="SourceGraphic" in2="BackgroundImageFix" result="shape"/>
<feGaussianBlur stdDeviation="12.6221" result="effect1_foregroundBlur_1_9207"/>
</filter>
<filter id="filter35_f_1_9207" x="33.8226" y="-51.6847" width="184.1" height="196.481" filterUnits="userSpaceOnUse" color-interpolation-filters="sRGB">
<feFlood flood-opacity="0" result="BackgroundImageFix"/>
<feBlend mode="normal" in="SourceGraphic" in2="BackgroundImageFix" result="shape"/>
<feGaussianBlur stdDeviation="5.16339" result="effect1_foregroundBlur_1_9207"/>
</filter>
<filter id="filter36_f_1_9207" x="41.2189" y="-64.6512" width="172.913" height="199.293" filterUnits="userSpaceOnUse" color-interpolation-filters="sRGB">
<feFlood flood-opacity="0" result="BackgroundImageFix"/>
<feBlend mode="normal" in="SourceGraphic" in2="BackgroundImageFix" result="shape"/>
<feGaussianBlur stdDeviation="5.16339" result="effect1_foregroundBlur_1_9207"/>
</filter>
<filter id="filter37_f_1_9207" x="23.2017" y="-45.7854" width="111.334" height="167.629" filterUnits="userSpaceOnUse" color-interpolation-filters="sRGB">
<feFlood flood-opacity="0" result="BackgroundImageFix"/>
<feBlend mode="normal" in="SourceGraphic" in2="BackgroundImageFix" result="shape"/>
<feGaussianBlur stdDeviation="0.333122" result="effect1_foregroundBlur_1_9207"/>
</filter>
<filter id="filter38_f_1_9207" x="12.2055" y="-47.2916" width="134.902" height="168.416" filterUnits="userSpaceOnUse" color-interpolation-filters="sRGB">
<feFlood flood-opacity="0" result="BackgroundImageFix"/>
<feBlend mode="normal" in="SourceGraphic" in2="BackgroundImageFix" result="shape"/>
<feGaussianBlur stdDeviation="1.16593" result="effect1_foregroundBlur_1_9207"/>
</filter>
<filter id="filter39_f_1_9207" x="11.5286" y="-88.5111" width="151.465" height="195.535" filterUnits="userSpaceOnUse" color-interpolation-filters="sRGB">
<feFlood flood-opacity="0" result="BackgroundImageFix"/>
<feBlend mode="normal" in="SourceGraphic" in2="BackgroundImageFix" result="shape"/>
<feGaussianBlur stdDeviation="1.66561" result="effect1_foregroundBlur_1_9207"/>
</filter>
<filter id="filter40_f_1_9207" x="-41.2204" y="-69.3788" width="245.536" height="193.276" filterUnits="userSpaceOnUse" color-interpolation-filters="sRGB">
<feFlood flood-opacity="0" result="BackgroundImageFix"/>
<feBlend mode="normal" in="SourceGraphic" in2="BackgroundImageFix" result="shape"/>
<feGaussianBlur stdDeviation="4.49714" result="effect1_foregroundBlur_1_9207"/>
</filter>
<filter id="filter41_f_1_9207" x="-62.7512" y="-117.245" width="295.639" height="236.401" filterUnits="userSpaceOnUse" color-interpolation-filters="sRGB">
<feFlood flood-opacity="0" result="BackgroundImageFix"/>
<feBlend mode="normal" in="SourceGraphic" in2="BackgroundImageFix" result="shape"/>
<feGaussianBlur stdDeviation="12.6221" result="effect1_foregroundBlur_1_9207"/>
</filter>
<filter id="filter42_f_1_9207" x="-62.7512" y="-117.245" width="295.639" height="236.401" filterUnits="userSpaceOnUse" color-interpolation-filters="sRGB">
<feFlood flood-opacity="0" result="BackgroundImageFix"/>
<feBlend mode="normal" in="SourceGraphic" in2="BackgroundImageFix" result="shape"/>
<feGaussianBlur stdDeviation="12.6221" result="effect1_foregroundBlur_1_9207"/>
</filter>
<filter id="filter43_f_1_9207" x="-62.7512" y="-117.245" width="295.639" height="236.401" filterUnits="userSpaceOnUse" color-interpolation-filters="sRGB">
<feFlood flood-opacity="0" result="BackgroundImageFix"/>
<feBlend mode="normal" in="SourceGraphic" in2="BackgroundImageFix" result="shape"/>
<feGaussianBlur stdDeviation="12.6221" result="effect1_foregroundBlur_1_9207"/>
</filter>
<filter id="filter44_f_1_9207" x="-62.7512" y="-117.245" width="295.639" height="236.401" filterUnits="userSpaceOnUse" color-interpolation-filters="sRGB">
<feFlood flood-opacity="0" result="BackgroundImageFix"/>
<feBlend mode="normal" in="SourceGraphic" in2="BackgroundImageFix" result="shape"/>
<feGaussianBlur stdDeviation="12.6221" result="effect1_foregroundBlur_1_9207"/>
</filter>
<filter id="filter45_f_1_9207" x="-0.297477" y="-75.1693" width="164.831" height="206.319" filterUnits="userSpaceOnUse" color-interpolation-filters="sRGB">
<feFlood flood-opacity="0" result="BackgroundImageFix"/>
<feBlend mode="normal" in="SourceGraphic" in2="BackgroundImageFix" result="shape"/>
<feGaussianBlur stdDeviation="5.16339" result="effect1_foregroundBlur_1_9207"/>
</filter>
<filter id="filter46_f_1_9207" x="29.6348" y="-45.8396" width="112.646" height="168.355" filterUnits="userSpaceOnUse" color-interpolation-filters="sRGB">
<feFlood flood-opacity="0" result="BackgroundImageFix"/>
<feBlend mode="normal" in="SourceGraphic" in2="BackgroundImageFix" result="shape"/>
<feGaussianBlur stdDeviation="0.333122" result="effect1_foregroundBlur_1_9207"/>
</filter>
<filter id="filter47_f_1_9207" x="19.7131" y="-48.6234" width="134.507" height="171.088" filterUnits="userSpaceOnUse" color-interpolation-filters="sRGB">
<feFlood flood-opacity="0" result="BackgroundImageFix"/>
<feBlend mode="normal" in="SourceGraphic" in2="BackgroundImageFix" result="shape"/>
<feGaussianBlur stdDeviation="1.16593" result="effect1_foregroundBlur_1_9207"/>
</filter>
<filter id="filter48_f_1_9207" x="23.2393" y="-88.5798" width="150.572" height="196.593" filterUnits="userSpaceOnUse" color-interpolation-filters="sRGB">
<feFlood flood-opacity="0" result="BackgroundImageFix"/>
<feBlend mode="normal" in="SourceGraphic" in2="BackgroundImageFix" result="shape"/>
<feGaussianBlur stdDeviation="1.66561" result="effect1_foregroundBlur_1_9207"/>
</filter>
<filter id="filter49_f_1_9207" x="-22.3776" y="-79.4494" width="236.775" height="204.046" filterUnits="userSpaceOnUse" color-interpolation-filters="sRGB">
<feFlood flood-opacity="0" result="BackgroundImageFix"/>
<feBlend mode="normal" in="SourceGraphic" in2="BackgroundImageFix" result="shape"/>
<feGaussianBlur stdDeviation="4.49714" result="effect1_foregroundBlur_1_9207"/>
</filter>
<filter id="filter50_f_1_9207" x="-42.1411" y="-127.405" width="288.94" height="248.444" filterUnits="userSpaceOnUse" color-interpolation-filters="sRGB">
<feFlood flood-opacity="0" result="BackgroundImageFix"/>
<feBlend mode="normal" in="SourceGraphic" in2="BackgroundImageFix" result="shape"/>
<feGaussianBlur stdDeviation="12.6221" result="effect1_foregroundBlur_1_9207"/>
</filter>
<filter id="filter51_f_1_9207" x="-42.1411" y="-127.405" width="288.94" height="248.444" filterUnits="userSpaceOnUse" color-interpolation-filters="sRGB">
<feFlood flood-opacity="0" result="BackgroundImageFix"/>
<feBlend mode="normal" in="SourceGraphic" in2="BackgroundImageFix" result="shape"/>
<feGaussianBlur stdDeviation="12.6221" result="effect1_foregroundBlur_1_9207"/>
</filter>
<filter id="filter52_f_1_9207" x="-42.1411" y="-127.405" width="288.94" height="248.444" filterUnits="userSpaceOnUse" color-interpolation-filters="sRGB">
<feFlood flood-opacity="0" result="BackgroundImageFix"/>
<feBlend mode="normal" in="SourceGraphic" in2="BackgroundImageFix" result="shape"/>
<feGaussianBlur stdDeviation="12.6221" result="effect1_foregroundBlur_1_9207"/>
</filter>
<filter id="filter53_f_1_9207" x="-42.1411" y="-127.405" width="288.94" height="248.444" filterUnits="userSpaceOnUse" color-interpolation-filters="sRGB">
<feFlood flood-opacity="0" result="BackgroundImageFix"/>
<feBlend mode="normal" in="SourceGraphic" in2="BackgroundImageFix" result="shape"/>
<feGaussianBlur stdDeviation="12.6221" result="effect1_foregroundBlur_1_9207"/>
</filter>
<filter id="filter54_f_1_9207" x="7.38099" y="-74.3524" width="168.034" height="206.42" filterUnits="userSpaceOnUse" color-interpolation-filters="sRGB">
<feFlood flood-opacity="0" result="BackgroundImageFix"/>
<feBlend mode="normal" in="SourceGraphic" in2="BackgroundImageFix" result="shape"/>
<feGaussianBlur stdDeviation="5.16339" result="effect1_foregroundBlur_1_9207"/>
</filter>
<filter id="filter55_f_1_9207" x="31.1716" y="-23.2246" width="118.342" height="139.245" filterUnits="userSpaceOnUse" color-interpolation-filters="sRGB">
<feFlood flood-opacity="0" result="BackgroundImageFix"/>
<feBlend mode="normal" in="SourceGraphic" in2="BackgroundImageFix" result="shape"/>
<feGaussianBlur stdDeviation="0.333121" result="effect1_foregroundBlur_1_9207"/>
</filter>
<filter id="filter56_f_1_9207" x="19.696" y="-26.4588" width="143.051" height="142.81" filterUnits="userSpaceOnUse" color-interpolation-filters="sRGB">
<feFlood flood-opacity="0" result="BackgroundImageFix"/>
<feBlend mode="normal" in="SourceGraphic" in2="BackgroundImageFix" result="shape"/>
<feGaussianBlur stdDeviation="1.16593" result="effect1_foregroundBlur_1_9207"/>
</filter>
<filter id="filter57_f_1_9207" x="19.9439" y="-58.7345" width="160.387" height="163.939" filterUnits="userSpaceOnUse" color-interpolation-filters="sRGB">
<feFlood flood-opacity="0" result="BackgroundImageFix"/>
<feBlend mode="normal" in="SourceGraphic" in2="BackgroundImageFix" result="shape"/>
<feGaussianBlur stdDeviation="1.66561" result="effect1_foregroundBlur_1_9207"/>
</filter>
<filter id="filter58_f_1_9207" x="-20.2042" y="-45.9791" width="245.81" height="167.483" filterUnits="userSpaceOnUse" color-interpolation-filters="sRGB">
<feFlood flood-opacity="0" result="BackgroundImageFix"/>
<feBlend mode="normal" in="SourceGraphic" in2="BackgroundImageFix" result="shape"/>
<feGaussianBlur stdDeviation="4.49714" result="effect1_foregroundBlur_1_9207"/>
</filter>
<filter id="filter59_f_1_9207" x="-42.0984" y="-88.2915" width="295.863" height="209.331" filterUnits="userSpaceOnUse" color-interpolation-filters="sRGB">
<feFlood flood-opacity="0" result="BackgroundImageFix"/>
<feBlend mode="normal" in="SourceGraphic" in2="BackgroundImageFix" result="shape"/>
<feGaussianBlur stdDeviation="12.6221" result="effect1_foregroundBlur_1_9207"/>
</filter>
<filter id="filter60_f_1_9207" x="-42.0984" y="-88.2915" width="295.863" height="209.331" filterUnits="userSpaceOnUse" color-interpolation-filters="sRGB">
<feFlood flood-opacity="0" result="BackgroundImageFix"/>
<feBlend mode="normal" in="SourceGraphic" in2="BackgroundImageFix" result="shape"/>
<feGaussianBlur stdDeviation="12.6221" result="effect1_foregroundBlur_1_9207"/>
</filter>
<filter id="filter61_f_1_9207" x="-42.0984" y="-88.2915" width="295.863" height="209.331" filterUnits="userSpaceOnUse" color-interpolation-filters="sRGB">
<feFlood flood-opacity="0" result="BackgroundImageFix"/>
<feBlend mode="normal" in="SourceGraphic" in2="BackgroundImageFix" result="shape"/>
<feGaussianBlur stdDeviation="12.6221" result="effect1_foregroundBlur_1_9207"/>
</filter>
<filter id="filter62_f_1_9207" x="-42.0984" y="-88.2915" width="295.863" height="209.331" filterUnits="userSpaceOnUse" color-interpolation-filters="sRGB">
<feFlood flood-opacity="0" result="BackgroundImageFix"/>
<feBlend mode="normal" in="SourceGraphic" in2="BackgroundImageFix" result="shape"/>
<feGaussianBlur stdDeviation="12.6221" result="effect1_foregroundBlur_1_9207"/>
</filter>
<filter id="filter63_f_1_9207" x="21.3046" y="-5.68761" width="165.77" height="131.764" filterUnits="userSpaceOnUse" color-interpolation-filters="sRGB">
<feFlood flood-opacity="0" result="BackgroundImageFix"/>
<feBlend mode="normal" in="SourceGraphic" in2="BackgroundImageFix" result="shape"/>
<feGaussianBlur stdDeviation="5.16339" result="effect1_foregroundBlur_1_9207"/>
</filter>
<filter id="filter64_f_1_9207" x="126.689" y="21.2317" width="132.671" height="108.447" filterUnits="userSpaceOnUse" color-interpolation-filters="sRGB">
<feFlood flood-opacity="0" result="BackgroundImageFix"/>
<feBlend mode="normal" in="SourceGraphic" in2="BackgroundImageFix" result="shape"/>
<feGaussianBlur stdDeviation="5.87888" result="effect1_foregroundBlur_1_9207"/>
</filter>
<linearGradient id="paint0_linear_1_9207" x1="107.573" y1="75.44" x2="294.841" y2="162.706" gradientUnits="userSpaceOnUse">
<stop stop-color="#C4C4C4" stop-opacity="0"/>
<stop offset="0.404205" stop-color="#C4C4C4"/>
<stop offset="0.601813" stop-color="#C4C4C4"/>
<stop offset="1" stop-color="#C4C4C4" stop-opacity="0"/>
</linearGradient>
<linearGradient id="paint1_linear_1_9207" x1="267.3" y1="27.1884" x2="231.005" y2="217.147" gradientUnits="userSpaceOnUse">
<stop stop-color="#C4C4C4"/>
<stop offset="1" stop-color="#C4C4C4" stop-opacity="0"/>
</linearGradient>
<linearGradient id="paint2_linear_1_9207" x1="250.734" y1="94.5853" x2="72.3851" y2="-9.70452" gradientUnits="userSpaceOnUse">
<stop stop-color="#C4C4C4" stop-opacity="0"/>
<stop offset="0.404205" stop-color="#C4C4C4"/>
<stop offset="0.601813" stop-color="#C4C4C4"/>
<stop offset="1" stop-color="#C4C4C4" stop-opacity="0"/>
</linearGradient>
<linearGradient id="paint3_linear_1_9207" x1="87.2108" y1="127.789" x2="141" y2="-57.9755" gradientUnits="userSpaceOnUse">
<stop stop-color="#C4C4C4"/>
<stop offset="1" stop-color="#C4C4C4" stop-opacity="0"/>
</linearGradient>
<linearGradient id="paint4_linear_1_9207" x1="-52.0915" y1="-27.5045" x2="259.214" y2="-20.7758" gradientUnits="userSpaceOnUse">
<stop stop-color="#C4C4C4" stop-opacity="0"/>
<stop offset="0.430547" stop-color="#C4C4C4"/>
<stop offset="0.498519" stop-color="#C4C4C4"/>
<stop offset="1" stop-color="#C4C4C4" stop-opacity="0"/>
</linearGradient>
<linearGradient id="paint5_linear_1_9207" x1="90.3618" y1="119.034" x2="132.382" y2="-69.4642" gradientUnits="userSpaceOnUse">
<stop stop-color="#C4C4C4"/>
<stop offset="1" stop-color="#C4C4C4" stop-opacity="0"/>
</linearGradient>
<linearGradient id="paint6_linear_1_9207" x1="40.3461" y1="-7.43141" x2="93.9629" y2="75.6955" gradientUnits="userSpaceOnUse">
<stop stop-color="#8000FF"/>
<stop offset="1" stop-color="#FF0091"/>
</linearGradient>
<linearGradient id="paint7_linear_1_9207" x1="37.8704" y1="-22.6432" x2="98.6271" y2="67.4972" gradientUnits="userSpaceOnUse">
<stop stop-color="#8000FF"/>
<stop offset="1" stop-color="#FF0091"/>
</linearGradient>
<linearGradient id="paint8_linear_1_9207" x1="30.5617" y1="-23.0289" x2="85.0899" y2="76.4915" gradientUnits="userSpaceOnUse">
<stop stop-color="#8000FF"/>
<stop offset="1" stop-color="#FF0091"/>
</linearGradient>
<linearGradient id="paint9_linear_1_9207" x1="32.5656" y1="-59.3458" x2="96.9535" y2="53.3055" gradientUnits="userSpaceOnUse">
<stop stop-color="#8000FF"/>
<stop offset="1" stop-color="#FF0091"/>
</linearGradient>
<linearGradient id="paint10_linear_1_9207" x1="-7.44333" y1="-36.8839" x2="29.8574" y2="89.3238" gradientUnits="userSpaceOnUse">
<stop stop-color="#8000FF"/>
<stop offset="1" stop-color="#FF0091"/>
</linearGradient>
<linearGradient id="paint11_linear_1_9207" x1="-10.6642" y1="-66.7981" x2="28.1542" y2="67.3499" gradientUnits="userSpaceOnUse">
<stop stop-color="#8000FF"/>
<stop offset="1" stop-color="#FF0091"/>
</linearGradient>
<linearGradient id="paint12_linear_1_9207" x1="-10.6642" y1="-66.7981" x2="28.1542" y2="67.3499" gradientUnits="userSpaceOnUse">
<stop stop-color="#8000FF"/>
<stop offset="1" stop-color="#FF0091"/>
</linearGradient>
<linearGradient id="paint13_linear_1_9207" x1="-10.6642" y1="-66.7981" x2="28.1542" y2="67.3499" gradientUnits="userSpaceOnUse">
<stop stop-color="#8000FF"/>
<stop offset="1" stop-color="#FF0091"/>
</linearGradient>
<linearGradient id="paint14_linear_1_9207" x1="-10.6642" y1="-66.7981" x2="28.1542" y2="67.3499" gradientUnits="userSpaceOnUse">
<stop stop-color="#8000FF"/>
<stop offset="1" stop-color="#FF0091"/>
</linearGradient>
<linearGradient id="paint15_linear_1_9207" x1="27.7896" y1="-40.6689" x2="90.8393" y2="70.1147" gradientUnits="userSpaceOnUse">
<stop stop-color="#8000FF"/>
<stop offset="1" stop-color="#FF0091"/>
</linearGradient>
<linearGradient id="paint16_linear_1_9207" x1="27.9119" y1="-2.02865" x2="263.72" y2="-15.686" gradientUnits="userSpaceOnUse">
<stop stop-color="#C4C4C4" stop-opacity="0"/>
<stop offset="0.355128" stop-color="#C4C4C4"/>
<stop offset="0.697837" stop-color="#C4C4C4"/>
<stop offset="1" stop-color="#C4C4C4" stop-opacity="0"/>
</linearGradient>
<linearGradient id="paint17_linear_1_9207" x1="101.547" y1="104.55" x2="135.003" y2="-47.6386" gradientUnits="userSpaceOnUse">
<stop stop-color="#C4C4C4"/>
<stop offset="1" stop-color="#C4C4C4" stop-opacity="0"/>
</linearGradient>
<linearGradient id="paint18_linear_1_9207" x1="221.662" y1="26.5753" x2="166.716" y2="125.472" gradientUnits="userSpaceOnUse">
<stop stop-color="#97E6FF"/>
<stop offset="1" stop-color="#ABC5ED"/>
</linearGradient>
<clipPath id="clip0_1_9207">
<rect x="12" y="9" width="286" height="100" rx="8" fill="white"/>
</clipPath>
</defs>
</svg>
