<svg width="12" height="12" viewBox="0 0 12 12" fill="none" xmlns="http://www.w3.org/2000/svg">
<g clip-path="url(#clip0_7_7824)">
<path d="M1.02441 3.50098H10.9749" stroke="#808080" stroke-linejoin="round"/>
<path d="M6.75195 1.00098L8.18095 3.50148" stroke="#808080" stroke-linecap="round" stroke-linejoin="round"/>
<path d="M3.60352 1.05469L5.00102 3.50069" stroke="#808080" stroke-linecap="round" stroke-linejoin="round"/>
<path d="M1 6.0005V7.725C1 9.1495 1.349 9.728 1.803 10.1975C2.273 10.6515 2.852 11.001 4.276 11.001H7.724C9.148 11.001 9.727 10.6515 10.197 10.1975C10.651 9.728 11 9.1495 11 7.725V4.276C11 2.852 10.651 2.273 10.197 1.8035C9.727 1.3495 9.148 1 7.724 1H4.276C2.852 1 2.273 1.3495 1.803 1.8035C1.349 2.273 1 2.852 1 4.276V6.0005Z" stroke="#808080" stroke-linecap="round" stroke-linejoin="round"/>
<path fill-rule="evenodd" clip-rule="evenodd" d="M4.88154 8.83239C4.81248 8.79251 4.75513 8.73515 4.71528 8.66607C4.67543 8.59699 4.65448 8.51864 4.65454 8.43889V5.81539C4.65445 5.73554 4.67539 5.65707 4.71527 5.58789C4.75514 5.51871 4.81254 5.46125 4.88168 5.4213C4.95083 5.38136 5.02927 5.36034 5.10912 5.36035C5.18898 5.36037 5.26741 5.38142 5.33654 5.42139L7.60904 6.73339C7.6782 6.77326 7.73564 6.83064 7.77557 6.89977C7.81551 6.96889 7.83654 7.04731 7.83654 7.12714C7.83654 7.20697 7.81551 7.28539 7.77557 7.35451C7.73564 7.42363 7.6782 7.48102 7.60904 7.52089L5.33654 8.83289C5.26737 8.87282 5.18891 8.89385 5.10904 8.89385C5.02917 8.89385 4.95071 8.87282 4.88154 8.83289V8.83239Z" fill="#808080"/>
</g>
<defs>
<clipPath id="clip0_7_7824">
<rect width="12" height="12" fill="white"/>
</clipPath>
</defs>
</svg>
