<svg width="14" height="14" viewBox="0 0 14 14" fill="none" xmlns="http://www.w3.org/2000/svg">
<path fill-rule="evenodd" clip-rule="evenodd" d="M2.91663 2.33366C2.59446 2.33366 2.33329 2.59483 2.33329 2.91699V11.0837C2.33329 11.4058 2.59446 11.667 2.91663 11.667H11.0833C11.4055 11.667 11.6666 11.4058 11.6666 11.0837V2.91699C11.6666 2.59483 11.4055 2.33366 11.0833 2.33366H2.91663ZM1.16663 2.91699C1.16663 1.95049 1.95013 1.16699 2.91663 1.16699H11.0833C12.0498 1.16699 12.8333 1.95049 12.8333 2.91699V11.0837C12.8333 12.0502 12.0498 12.8337 11.0833 12.8337H2.91663C1.95013 12.8337 1.16663 12.0502 1.16663 11.0837V2.91699Z" fill="white"/>
<path fill-rule="evenodd" clip-rule="evenodd" d="M1.16663 5.25033C1.16663 4.92816 1.42779 4.66699 1.74996 4.66699H12.25C12.5721 4.66699 12.8333 4.92816 12.8333 5.25033C12.8333 5.57249 12.5721 5.83366 12.25 5.83366H1.74996C1.42779 5.83366 1.16663 5.57249 1.16663 5.25033Z" fill="white"/>
<path fill-rule="evenodd" clip-rule="evenodd" d="M1.16663 8.75033C1.16663 8.42816 1.42779 8.16699 1.74996 8.16699H12.25C12.5721 8.16699 12.8333 8.42816 12.8333 8.75033C12.8333 9.07249 12.5721 9.33366 12.25 9.33366H1.74996C1.42779 9.33366 1.16663 9.07249 1.16663 8.75033Z" fill="white"/>
<path fill-rule="evenodd" clip-rule="evenodd" d="M6.99996 1.16699C7.32213 1.16699 7.58329 1.42816 7.58329 1.75033V12.2503C7.58329 12.5725 7.32213 12.8337 6.99996 12.8337C6.67779 12.8337 6.41663 12.5725 6.41663 12.2503V1.75033C6.41663 1.42816 6.67779 1.16699 6.99996 1.16699Z" fill="white"/>
</svg>
