<svg width="12" height="12" viewBox="0 0 12 12" fill="none" xmlns="http://www.w3.org/2000/svg">
<g clip-path="url(#clip0_7_7833)">
<path d="M5.1005 1.89805L6 0.998047L6.8995 1.89805C7.04861 2.04697 7.25076 2.1306 7.4615 2.13055H10.091C10.3321 2.13055 10.5633 2.22632 10.7338 2.39679C10.9042 2.56726 11 2.79847 11 3.03955V10.0915C11 10.3326 10.9042 10.5638 10.7338 10.7343C10.5633 10.9048 10.3321 11.0005 10.091 11.0005H1.909C1.66792 11.0005 1.43671 10.9048 1.26624 10.7343C1.09577 10.5638 1 10.3326 1 10.0915V3.03955C1 2.79847 1.09577 2.56726 1.26624 2.39679C1.43671 2.22632 1.66792 2.13055 1.909 2.13055H4.539C4.74957 2.13047 4.95151 2.04685 5.1005 1.89805Z" stroke="#808080" stroke-linecap="round" stroke-linejoin="round"/>
<path d="M9.29895 11.0011V10.7001C9.29895 10.1765 9.09099 9.67436 8.72081 9.30408C8.35063 8.9338 7.84853 8.72572 7.32495 8.72559H4.74745C4.22378 8.72559 3.72156 8.93361 3.35127 9.3039C2.98098 9.67419 2.77295 10.1764 2.77295 10.7001V11.0016" stroke="#808080" stroke-linecap="round" stroke-linejoin="round"/>
<path d="M6.03606 7.31577C7.01802 7.31577 7.81406 6.51973 7.81406 5.53777C7.81406 4.5558 7.01802 3.75977 6.03606 3.75977C5.05409 3.75977 4.25806 4.5558 4.25806 5.53777C4.25806 6.51973 5.05409 7.31577 6.03606 7.31577Z" stroke="#808080" stroke-linecap="round" stroke-linejoin="round"/>
</g>
<defs>
<clipPath id="clip0_7_7833">
<rect width="12" height="12" fill="white"/>
</clipPath>
</defs>
</svg>
