<svg width="24" height="24" viewBox="0 0 24 24" fill="none" xmlns="http://www.w3.org/2000/svg">
<g clip-path="url(#clip0_1_8314)">
<path d="M17.25 6.00024H6.74999C5.7558 6.00144 4.80266 6.39691 4.09966 7.09991C3.39666 7.80291 3.00119 8.75605 2.99999 9.75024L2.99999 14.2502C3.00119 15.2444 3.39666 16.1976 4.09966 16.9006C4.80266 17.6036 5.7558 17.9991 6.74999 18.0002H17.25C18.2442 17.9991 19.1973 17.6036 19.9003 16.9006C20.6033 16.1976 20.9988 15.2444 21 14.2502V9.75024C20.9988 8.75605 20.6033 7.80291 19.9003 7.09991C19.1973 6.39691 18.2442 6.00144 17.25 6.00024ZM5.99999 15.7502C5.85166 15.7502 5.70665 15.7063 5.58332 15.6238C5.45998 15.5414 5.36385 15.4243 5.30708 15.2873C5.25032 15.1502 5.23547 14.9994 5.26441 14.8539C5.29334 14.7084 5.36477 14.5748 5.46966 14.4699C5.57455 14.365 5.70819 14.2936 5.85368 14.2647C5.99916 14.2357 6.14996 14.2506 6.28701 14.3073C6.42405 14.3641 6.54119 14.4602 6.6236 14.5836C6.70601 14.7069 6.74999 14.8519 6.74999 15.0002C6.74999 15.1992 6.67098 15.3899 6.53032 15.5306C6.38967 15.6712 6.19891 15.7502 5.99999 15.7502ZM5.99999 9.75024C5.85166 9.75024 5.70665 9.70626 5.58332 9.62385C5.45998 9.54144 5.36385 9.4243 5.30708 9.28726C5.25032 9.15021 5.23547 8.99941 5.26441 8.85393C5.29334 8.70844 5.36477 8.5748 5.46966 8.46991C5.57455 8.36502 5.70819 8.29359 5.85368 8.26466C5.99916 8.23572 6.14996 8.25057 6.28701 8.30733C6.42405 8.3641 6.54119 8.46023 6.6236 8.58357C6.70601 8.7069 6.74999 8.85191 6.74999 9.00024C6.74999 9.19916 6.67098 9.38992 6.53032 9.53057C6.38967 9.67123 6.19891 9.75024 5.99999 9.75024ZM12 15.0002C11.4067 15.0002 10.8266 14.8243 10.3333 14.4947C9.83994 14.165 9.45542 13.6965 9.22836 13.1483C9.00129 12.6001 8.94188 11.9969 9.05764 11.415C9.17339 10.833 9.45912 10.2985 9.87867 9.87892C10.2982 9.45937 10.8328 9.17364 11.4147 9.05789C11.9967 8.94213 12.5999 9.00154 13.148 9.22861C13.6962 9.45567 14.1648 9.84019 14.4944 10.3335C14.824 10.8269 15 11.4069 15 12.0002C15 12.7959 14.6839 13.559 14.1213 14.1216C13.5587 14.6842 12.7956 15.0002 12 15.0002ZM18 15.7502C17.8517 15.7502 17.7067 15.7063 17.5833 15.6238C17.46 15.5414 17.3639 15.4243 17.3071 15.2873C17.2503 15.1502 17.2355 14.9994 17.2644 14.8539C17.2933 14.7084 17.3648 14.5748 17.4697 14.4699C17.5746 14.365 17.7082 14.2936 17.8537 14.2647C17.9992 14.2357 18.15 14.2506 18.287 14.3073C18.4241 14.3641 18.5412 14.4602 18.6236 14.5836C18.706 14.7069 18.75 14.8519 18.75 15.0002C18.75 15.1992 18.671 15.3899 18.5303 15.5306C18.3897 15.6712 18.1989 15.7502 18 15.7502ZM18 9.75024C17.8517 9.75024 17.7067 9.70626 17.5833 9.62385C17.46 9.54144 17.3639 9.4243 17.3071 9.28726C17.2503 9.15021 17.2355 8.99941 17.2644 8.85393C17.2933 8.70844 17.3648 8.5748 17.4697 8.46991C17.5746 8.36502 17.7082 8.29359 17.8537 8.26466C17.9992 8.23572 18.15 8.25057 18.287 8.30733C18.4241 8.3641 18.5412 8.46023 18.6236 8.58357C18.706 8.7069 18.75 8.85191 18.75 9.00024C18.75 9.19916 18.671 9.38992 18.5303 9.53057C18.3897 9.67123 18.1989 9.75024 18 9.75024ZM13.5 12.0002C13.5 12.2969 13.412 12.5869 13.2472 12.8336C13.0824 13.0803 12.8481 13.2725 12.574 13.3861C12.2999 13.4996 11.9983 13.5293 11.7074 13.4714C11.4164 13.4135 11.1491 13.2707 10.9393 13.0609C10.7296 12.8511 10.5867 12.5839 10.5288 12.2929C10.4709 12.0019 10.5006 11.7003 10.6142 11.4262C10.7277 11.1521 10.92 10.9179 11.1666 10.753C11.4133 10.5882 11.7033 10.5002 12 10.5002C12.3978 10.5002 12.7793 10.6583 13.0607 10.9396C13.342 11.2209 13.5 11.6024 13.5 12.0002Z" fill="#434343"/>
</g>
<defs>
<clipPath id="clip0_1_8314">
<rect width="18" height="18" fill="white" transform="translate(3 3)"/>
</clipPath>
</defs>
</svg>
