<svg width="18" height="18" viewBox="0 0 18 18" fill="none" xmlns="http://www.w3.org/2000/svg">
<path d="M8.99985 11.9988C10.6561 11.9988 11.9987 10.6562 11.9987 8.99994C11.9987 7.34371 10.6561 6.00107 8.99985 6.00107C7.34362 6.00107 6.00098 7.34371 6.00098 8.99994C6.00098 10.6562 7.34362 11.9988 8.99985 11.9988Z" fill="#F8FAFF"/>
<path d="M17.4501 7.06504C16.2873 5.17124 13.6423 1.99391 8.99998 1.99391C4.35771 1.99391 1.71269 5.17124 0.549868 7.06504C-0.183289 8.25088 -0.183289 9.74925 0.549868 10.9351C1.71269 12.8289 4.35771 16.0062 8.99998 16.0062C13.6423 16.0062 16.2873 12.8289 17.4501 10.9351C18.1833 9.74925 18.1833 8.25088 17.4501 7.06504ZM8.99998 13.4984C6.51564 13.4984 4.50165 11.4844 4.50165 9.00006C4.50165 6.51572 6.51564 4.50173 8.99998 4.50173C11.4843 4.50173 13.4983 6.51572 13.4983 9.00006C13.4958 11.4834 11.4833 13.4959 8.99998 13.4984Z" fill="#F8FAFF"/>
</svg>
